<?xml version="1.0" encoding="UTF-8" standalone="no"?>
<svg width="183px" height="35px" viewBox="0 0 183 35" version="1.1" xmlns="http://www.w3.org/2000/svg" xmlns:xlink="http://www.w3.org/1999/xlink">
    <!-- Generator: Sketch 41 (35326) - http://www.bohemiancoding.com/sketch -->
    <title>Asset 4</title>
    <desc>Created with Sketch.</desc>
    <defs></defs>
    <g id="Symbols" stroke="none" stroke-width="1" fill="none" fill-rule="evenodd">
        <g id="ckeditor-logotype" transform="translate(-59.000000, -41.000000)">
            <g id="Asset-4" transform="translate(59.000000, 41.000000)">
                <g id="Layer_2">
                    <g>
                        <g id="Layer_1-2">
                            <g id="Group">
                                <path d="M25.765469,1.79666667 L25.5734499,5.85666667 C23.1967667,4.81304801 20.6327758,4.26621507 18.0381558,4.24958333 C14.0154531,4.24958333 10.8209539,5.42791667 8.45465819,7.78458333 C6.08836248,10.14125 4.90715421,13.3204167 4.91103339,17.3220833 C4.91103339,21.3568056 6.0854531,24.5359722 8.43429253,26.8595833 C10.783132,29.1831944 14.001876,30.3411111 18.0905246,30.3333333 C20.6250753,30.3446097 23.1363983,29.8488214 25.4774404,28.875 L25.6229094,33.0808333 C23.0638104,33.8937838 20.3906936,34.2877289 17.7064865,34.2475 C12.2038792,34.2475 7.87763116,32.7483333 4.72774245,29.75 C1.57785374,26.7516667 0.00193958665,22.68875 0,17.56125 C0,12.3715278 1.61470588,8.22888889 4.84411765,5.13333333 C8.07352941,2.03777778 12.4085056,0.490972222 17.8490461,0.492916667 C20.5441468,0.452734097 23.2248354,0.894214768 25.765469,1.79666667 L25.765469,1.79666667 Z" id="Shape" fill="#313636"></path>
                                <polygon id="Shape" fill="#313636" points="56.6223529 34.1366667 50.5882989 34.1366667 35.8668362 17.75375 35.8668362 34.1366667 31.2001908 34.1366667 31.2001908 0.597916667 35.8668362 0.597916667 35.8668362 15.3358333 49.7213037 0.597916667 55.3684102 0.597916667 40.3065501 16.2545833"></polygon>
                                <polygon id="Shape" fill="#919495" points="58.3476153 34.1366667 58.3476153 1.01791667 76.0628299 1.01791667 76.7319873 3.79166667 61.2599046 3.79166667 61.2599046 15.8725 74.3812083 15.8725 74.3812083 18.5791667 61.2599046 18.5791667 61.2599046 31.3279167 77.4331479 31.3279167 76.8018124 34.1366667"></polygon>
                                <path d="M101.848665,29.3970833 C100.691189,31.0393722 99.1758915,32.3958828 97.4176789,33.36375 C95.7190114,34.278483 93.8180162,34.7499069 91.8898569,34.7345833 C88.276407,34.7345833 85.2477424,33.5231944 82.8038633,31.1004167 C80.3599841,28.6776389 79.1370747,25.6802778 79.1351351,22.1083333 C79.1351351,18.5363889 80.3531955,15.5506944 82.7893164,13.15125 C85.2254372,10.7518056 88.2579809,9.55208333 91.8869475,9.55208333 C93.8543281,9.52592718 95.7965393,9.99739837 97.5340541,10.9229167 C99.27163,11.8810311 100.748922,13.250874 101.837027,14.9129167 L101.837027,0.35 L104.455469,0.035 L104.455469,34.125 L101.837027,34.44 L101.848665,29.3970833 Z M81.9223211,22.1054167 C81.8811277,24.7589976 82.943675,27.3100028 84.8549762,29.14625 C87.6989898,31.9997251 91.9770458,32.8558214 95.6958966,31.3156636 C99.4147475,29.7755057 101.84276,26.142099 101.848665,22.1083333 C101.755766,16.6585779 97.3224268,12.2894373 91.8854928,12.2894373 C86.4485589,12.2894373 82.0152195,16.6585779 81.9223211,22.1083333 L81.9223211,22.1054167 Z" id="Shape" fill="#919495"></path>
                                <path d="M109.101749,2.48208333 L111.103402,0 L113.192337,2.2225 L111.103402,4.70458333 L109.101749,2.48208333 Z M109.767997,34.5216667 L109.767997,10.08 L112.540636,9.76208333 L112.540636,34.125 L109.767997,34.5216667 Z" id="Shape" fill="#919495"></path>
                                <path d="M128.184372,34.125 C127.713052,34.23 127.259189,34.30875 126.828601,34.36125 C126.426161,34.4121081 126.021011,34.4384066 125.61539,34.44 C123.194785,34.44 121.481161,33.7594444 120.474515,32.3983333 C119.46787,31.0372222 118.964547,28.5668056 118.964547,24.9870833 L118.964547,12.71375 L115.502385,12.71375 L116.27337,10.08875 L118.973275,10.08875 L118.973275,4.375 L121.67318,2.7475 L121.67318,10.08 L127.951622,10.08 L127.951622,12.705 L121.667361,12.705 L121.667361,25.3166667 C121.667361,27.9086111 121.968967,29.6284722 122.572178,30.47625 C123.17539,31.3240278 124.242162,31.7479167 125.772496,31.7479167 C126.137688,31.7451813 126.502244,31.7169183 126.863514,31.6633333 C127.265008,31.6069444 127.708203,31.5301389 128.1931,31.4329167 L128.184372,34.125 Z" id="Shape" fill="#919495"></path>
                                <path d="M129.685612,22.1083333 C129.685612,18.5363889 130.903672,15.5506944 133.339793,13.15125 C135.775914,10.7518056 138.809428,9.55208333 142.440334,9.55208333 C146.055723,9.55208333 149.078569,10.7518056 151.508871,13.15125 C153.939173,15.5506944 155.154324,18.5363889 155.154324,22.1083333 C155.154324,25.6958333 153.939173,28.6970833 151.508871,31.1120833 C149.078569,33.5270833 146.055723,34.7345833 142.440334,34.7345833 C138.824944,34.7345833 135.79434,33.5231944 133.348521,31.1004167 C130.902703,28.6776389 129.681733,25.6802778 129.685612,22.1083333 Z M132.458251,22.1083333 C132.417058,24.7619143 133.479605,27.3129195 135.390906,29.1491667 C138.235567,32.0009316 142.512978,32.8555163 146.230818,31.3148748 C149.948659,29.7742333 152.375781,26.1413479 152.381685,22.1083333 C152.288787,16.6585779 147.855448,12.2894373 142.418514,12.2894373 C136.98158,12.2894373 132.54824,16.6585779 132.455342,22.1083333 L132.458251,22.1083333 Z" id="Shape" fill="#919495"></path>
                                <path d="M158.994706,34.4516667 L158.994706,10.08 L161.69461,9.76208333 L161.69461,14.97125 C162.664404,13.0831944 163.85531,11.6676389 165.267329,10.7245833 C166.717206,9.76778547 168.422547,9.27453026 170.157997,9.31 L170.818426,9.31 L169.709952,11.97875 C166.975135,12.2451389 164.956025,13.4390278 163.652623,15.5604167 C162.349221,17.6818056 161.69752,20.8493056 161.69752,25.0629167 L161.69752,34.125 L158.994706,34.4516667 Z" id="Shape" fill="#919495"></path>
                                <polygon id="Shape" fill="#919495" points="175.281415 2.765 173.538696 2.765 173.538696 8.28625 172.662973 8.28625 172.662973 2.765 170.920254 2.765 170.920254 2.04458333 175.281415 2.04458333"></polygon>
                                <path d="M182.81089,8.28625 L181.970079,8.28625 L181.970079,3.38333333 C181.972034,3.05829245 181.996336,2.73377322 182.042814,2.41208333 C181.97404,2.70899755 181.886584,3.00124879 181.78097,3.28708333 L179.799682,8.28625 L179.028696,8.28625 L177.061955,3.20833333 C176.973895,2.95922314 176.904841,2.70376575 176.85539,2.44416667 C176.890302,3.01 176.907758,3.31916667 176.907758,3.41541667 L176.907758,8.28625 L176.136773,8.28625 L176.136773,2.04166667 L177.457631,2.04166667 L179.299269,6.88041667 C179.391554,7.13822429 179.443566,7.40877464 179.453466,7.6825 C179.469563,7.4073779 179.518399,7.1351701 179.598935,6.87166667 L181.507488,2.04166667 L182.81089,2.04166667 L182.81089,8.28625 Z" id="Shape" fill="#919495"></path>
                            </g>
                        </g>
                    </g>
                </g>
            </g>
        </g>
    </g>
</svg>