<svg width="422" height="46" xmlns="http://www.w3.org/2000/svg" xmlns:xlink="http://www.w3.org/1999/xlink">
    <defs>
        <linearGradient x1="50%" y1="0%" x2="50%" y2="100%" id="a">
            <stop stop-color="#faf3e5" offset="0%"/>
            <stop stop-color="#cdb37c" offset="100%"/>
        </linearGradient>
        <path d="M17.057 21.596s13.048-.504 15.456-.56v-.896c-2.408-.056-15.456-.56-15.456-.56s13.048-.504 15.456-.56v-.84c-2.408-.112-15.456-.616-15.456-.616s13.048-.448 15.456-.56v-16.296h-32.424v42.224h22.736v-10.136h9.016v-10.416h.672v-.224c-2.408-.112-15.456-.56-15.456-.56 M58.254 21.148v-.056c-2.576-.112-11.368-.336-11.368-.336s8.792-.616 11.368-.784v-.896c-2.52-.056-11.424-.336-11.424-.336s8.904-.616 11.424-.784v-.896c-2.464-.056-11.48-.28-11.48-.28s9.016-.672 11.48-.784v-15.288h-22.68v42.168h32.704v-21.728h-10.024 M88.562 32.964s13.832-.504 15.568-.56v-.84c-1.736-.056-15.568-.616-15.568-.616s13.832-.504 15.568-.56v-.84c-1.736-.056-15.568-.56-15.568-.56s13.832-.504 15.568-.56v-7.224h-.504v-2.688c-3.08-.112-15.064-.56-15.064-.56s11.984-.448 15.064-.56v-.896c-3.08-.112-15.064-.56-15.064-.56s11.984-.448 15.064-.56v-.84c-3.08-.112-15.064-.56-15.064-.56s11.984-.448 15.064-.56v-12.712h-32.48v42.112h32.984v-9.296c-1.736-.056-15.568-.56-15.568-.56 M120.308 25.124s7.392 11.592 11.256 17.696h1.176c-3.472-6.048-10.696-18.76-10.696-18.76s8.232 13.104 11.872 18.76h1.12c-3.192-5.544-11.312-19.768-11.312-19.768s9.408 14.84 12.544 19.768h18.816l-12.376-21.336 11.984-20.72h-25.088c3.584 6.328 10.304 18.032 10.304 18.032s-7.616-12.04-11.424-18.032h-1.176c3.416 5.936 10.92 19.096 10.92 19.096s-8.624-13.608-12.096-19.096h-1.12c3.024 5.32 11.48 20.104 11.48 20.104s-9.856-15.512-12.768-20.104h-19.264l11.816 20.888-12.152 21.168h26.32c-3.64-6.384-10.136-17.696-10.136-17.696 M189.136.708c-2.688 5.096-11.312 21.168-11.312 21.168s7.392-15.512 10.136-21.168h-1.064c-3.136 5.824-10.864 20.272-10.864 20.272s6.72-14 9.688-20.272h-1.12c-3.36 6.328-10.36 19.376-10.36 19.376s6.104-12.768 9.296-19.376h-28.224l13.608 25.424v16.688h22.624v-16.744l14.336-25.368h-16.744" id="flexy"/>
        <path d="M249.644 17.228c-5.208-.672-10.416 1.736-10.752 1.792.336-.056 5.376-2.744 10.808-2.352 3.584.112 6.608 1.848 8.344 3.08.056-.28.168-.616.28-.952-1.848-1.4-4.816-3.192-8.512-3.528-5.824-.728-11.368 1.904-11.704 1.96.336-.056 5.712-2.968 11.76-2.52 3.584.168 6.664 1.68 8.68 3.024.056-.392.112-.728.112-1.12-2.072-1.456-5.04-2.968-8.624-3.304-6.552-.784-12.376 2.072-12.712 2.128.336-.112 6.048-3.192 12.768-2.688 3.416.112 6.44 1.456 8.624 2.744v-.112c.056-2.688-.784-5.376-2.184-7.504-1.344-2.072-3.136-3.584-5.04-4.648-1.792-1.064-3.808-1.736-5.712-2.072-1.96-.336-3.808-.448-5.824-.448-1.624 0-3.248.056-4.704.168-1.568.112-2.856.224-4.2.504l-6.776 1.344v38.64l7.168 1.064c1.792.28 4.2.448 7.336.448 2.968 0 5.544-.224 8.064-.784 2.464-.616 4.872-1.624 7-3.304h.056c1.568-1.288 3.024-2.968 4.032-4.984 1.064-2.016 1.68-4.424 1.68-6.832 0-1.736-.336-3.528-.896-5.152-.336-.448-3.976-4.088-9.072-4.592 M297.103 7.26c-1.736-2.016-4.032-3.752-6.608-4.872-2.576-1.12-5.432-1.68-8.344-1.68-2.072 0-4.088.28-5.992.84-.28.784-.896 2.8-.728 5.488.056 3.528 2.296 7.616 6.72 10.024 5.32 2.8 9.016 8.512 9.576 13.104.672 4.536-.336 7.448-.392 7.56.056-.112.952-3.08.168-7.56-.616-4.536-4.368-10.024-9.632-12.6-4.592-2.296-7.28-6.664-7.448-10.472-.168-2.24.168-4.032.448-5.096-.336.112-.672.224-1.008.392-.28 1.12-.504 2.8-.392 4.816 0 4.032 2.912 9.016 7.728 11.536 4.872 2.632 8.12 7.672 8.568 11.76.616 4.032-.336 6.72-.28 6.72-.056 0 .84-2.688.112-6.72-.56-4.032-3.864-8.792-8.68-11.256-5.04-2.408-8.344-7.672-8.4-11.984-.168-1.68-.056-3.136.168-4.312l-1.008.56c-.168 1.064-.224 2.352-.168 3.808-.056 4.536 3.472 10.472 8.736 13.16 4.48 2.408 7.168 6.776 7.616 10.36.504 3.304-.224 5.656-.28 5.824.056-.112.672-2.464.112-5.824-.56-3.528-3.304-7.616-7.728-9.912-5.432-2.52-9.352-8.736-9.408-13.496-.112-1.176-.056-2.24 0-3.192-1.232.84-2.352 1.792-3.304 2.912-3.696 4.032-5.488 9.352-5.432 14.784 0 5.208 1.568 10.36 5.096 14.448 1.792 2.016 4.032 3.696 6.552 4.76 2.576 1.12 5.376 1.68 8.232 1.68h.224c5.376 0 10.808-2.016 14.616-6.048s5.656-9.576 5.6-15.232c0-5.096-1.512-10.248-5.04-14.28 M314.683 25.124s7.392 11.592 11.256 17.696h1.176c-3.472-6.048-10.696-18.76-10.696-18.76s8.232 13.104 11.872 18.76h1.12c-3.192-5.544-11.312-19.768-11.312-19.768s9.408 14.84 12.544 19.768h18.816l-12.376-21.336 11.984-20.72h-25.088c3.584 6.328 10.304 18.032 10.304 18.032s-7.616-12.04-11.424-18.032h-1.176c3.416 5.936 10.92 19.096 10.92 19.096s-8.624-13.608-12.096-19.096h-1.12c3.024 5.32 11.48 20.104 11.48 20.104s-9.856-15.512-12.768-20.104h-19.264l11.816 20.888-12.152 21.168h26.32c-3.64-6.384-10.136-17.696-10.136-17.696 M367.046 32.964s13.832-.504 15.568-.56v-.84c-1.736-.056-15.568-.616-15.568-.616s13.832-.504 15.568-.56v-.84c-1.736-.056-15.568-.56-15.568-.56s13.832-.504 15.568-.56v-7.224h-.504v-2.688c-3.08-.112-15.064-.56-15.064-.56s11.984-.448 15.064-.56v-.896c-3.08-.112-15.064-.56-15.064-.56s11.984-.448 15.064-.56v-.84c-3.08-.112-15.064-.56-15.064-.56s11.984-.448 15.064-.56v-12.712h-32.48v42.112h32.984v-9.296c-1.736-.056-15.568-.56-15.568-.56 M416.152 18.292c-1.512-1.288-4.2-2.968-7.616-3.304-5.096-.728-10.304 1.68-10.584 1.736.28-.056 5.32-2.744 10.64-2.296 3.136.112 5.88 1.456 7.616 2.632l.28-1.008c-1.792-1.288-4.536-2.744-7.728-3.024-5.824-.728-11.256 1.848-11.592 1.904.336-.056 5.6-2.912 11.648-2.464 3.192.112 5.992 1.4 7.952 2.632l.28-1.008c-2.016-1.344-4.816-2.688-8.12-3.024-6.44-.728-12.208 2.016-12.6 2.072.392-.056 5.992-3.136 12.656-2.632 3.248.168 6.16 1.344 8.344 2.632l2.072-7.56-6.496-2.912c-2.408-1.064-5.768-1.96-9.688-1.96-4.424 0-8.736 1.232-12.152 4.032-1.68 1.4-3.136 3.192-4.088 5.208-.952 2.072-1.4 4.256-1.4 6.496 0 1.904.392 3.92 1.12 5.712l.336.616c1.176 1.12 4.312 3.64 8.456 4.032 5.096.672 10.248-1.68 10.584-1.792-.336.112-5.32 2.744-10.64 2.352-3.584-.112-6.608-1.848-8.288-3.08l-.28.952c1.792 1.4 4.76 3.192 8.4 3.528 5.824.728 11.256-1.904 11.592-1.96-.336.112-5.656 2.968-11.648 2.52-3.528-.168-6.608-1.68-8.568-3.024v.056l-.28.952c2.072 1.456 5.096 3.08 8.736 3.36 6.44.784 12.208-2.016 12.544-2.072-.336.056-5.936 3.136-12.6 2.632-3.584-.112-6.664-1.568-8.904-2.912l-2.184 8.792 5.6 3.08c1.68.896 3.248 1.456 5.04 1.904 1.792.392 3.752.672 5.936.672h.056c4.76 0 9.352-1.288 12.88-4.256 3.528-2.968 5.376-7.56 5.32-11.704 0-1.68-.28-3.472-.896-5.208-.392-1.176-1.008-2.296-1.736-3.304" id="boxes"/>
    </defs>
    <g fill="rgb(254,254,254)" fill-opacity=".085" transform="translate(2 2)">
        <use xlink:href="#flexy"/>
        <use xlink:href="#boxes"/>
    </g>
    <use fill="url(#a)" xlink:href="#flexy"></use>
    <use fill="url(#a)" xlink:href="#boxes"></use>
</svg>
