<?xml version="1.0" encoding="iso-8859-1"?>
<!-- Generator: Adobe Illustrator 16.0.0, SVG Export Plug-In . SVG Version: 6.00 Build 0)  -->
<!DOCTYPE svg PUBLIC "-//W3C//DTD SVG 1.1//EN" "http://www.w3.org/Graphics/SVG/1.1/DTD/svg11.dtd">
<svg version="1.1" id="Capa_1" xmlns="http://www.w3.org/2000/svg" xmlns:xlink="http://www.w3.org/1999/xlink" x="0px" y="0px"
	 width="512px" height="512px" viewBox="0 0 512 512" style="enable-background:new 0 0 512 512;" xml:space="preserve">
<g>
	<path d="M129.772,255.999c-0.005,32.708,26.505,59.228,59.213,59.231s59.228-26.504,59.232-59.213c0-0.006,0-0.013,0-0.019
		c0.005-32.708-26.505-59.228-59.213-59.232c-32.708-0.005-59.227,26.505-59.232,59.213
		C129.772,255.986,129.772,255.993,129.772,255.999z M256.002,0C114.615,0,0,114.616,0,256s114.613,256,256.002,256
		C397.385,512,512,397.385,512,256C512,114.616,397.385,0,256.002,0z M189.698,479.641C112.72,434.854,60.964,351.479,60.964,256
		c0-95.479,51.756-178.854,128.731-223.641C266.7,77.14,318.49,160.503,318.49,256C318.49,351.494,266.7,434.859,189.698,479.641z"
		/>
</g>
<g>
</g>
<g>
</g>
<g>
</g>
<g>
</g>
<g>
</g>
<g>
</g>
<g>
</g>
<g>
</g>
<g>
</g>
<g>
</g>
<g>
</g>
<g>
</g>
<g>
</g>
<g>
</g>
<g>
</g>
</svg>
