<?xml version="1.0" encoding="UTF-8" standalone="no"?>
<!-- Created with Inkscape (http://www.inkscape.org/) -->

<svg
   xmlns:dc="http://purl.org/dc/elements/1.1/"
   xmlns:cc="http://creativecommons.org/ns#"
   xmlns:rdf="http://www.w3.org/1999/02/22-rdf-syntax-ns#"
   xmlns:svg="http://www.w3.org/2000/svg"
   xmlns="http://www.w3.org/2000/svg"
   xmlns:sodipodi="http://sodipodi.sourceforge.net/DTD/sodipodi-0.dtd"
   xmlns:inkscape="http://www.inkscape.org/namespaces/inkscape"
   id="svg4136"
   version="1.1"
   inkscape:version="0.91 r13725"
   width="2334.9812"
   height="679.3703"
   viewBox="0 0 2334.9812 679.37029"
   sodipodi:docname="Logo UniTNT Horizontal.svg"
   inkscape:export-filename="C:\Users\bruno.sotto\ProjetosIonic\csaAlunoApp\src\assets\imgs\icon_only.png"
   inkscape:export-xdpi="90"
   inkscape:export-ydpi="90">
  <metadata
     id="metadata4142">
    <rdf:RDF>
      <cc:Work
         rdf:about="">
        <dc:format>image/svg+xml</dc:format>
        <dc:type
           rdf:resource="http://purl.org/dc/dcmitype/StillImage" />
        <dc:title></dc:title>
      </cc:Work>
    </rdf:RDF>
  </metadata>
  <defs
     id="defs4140">
    <clipPath
       id="clipPath4162"
       clipPathUnits="userSpaceOnUse">
      <path
         inkscape:connector-curvature="0"
         id="path4164"
         d="M 0,800 800,800 800,0 0,0 0,800 Z" />
    </clipPath>
    <clipPath
       id="clipPath4366"
       clipPathUnits="userSpaceOnUse">
      <path
         inkscape:connector-curvature="0"
         id="path4368"
         d="M 0,800 800,800 800,0 0,0 0,800 Z" />
    </clipPath>
    <clipPath
       id="clipPath4416"
       clipPathUnits="userSpaceOnUse">
      <path
         inkscape:connector-curvature="0"
         id="path4418"
         d="M 0,800 800,800 800,0 0,0 0,800 Z" />
    </clipPath>
    <clipPath
       id="clipPath4444"
       clipPathUnits="userSpaceOnUse">
      <path
         inkscape:connector-curvature="0"
         id="path4446"
         d="M 0,800 800,800 800,0 0,0 0,800 Z" />
    </clipPath>
    <clipPath
       id="clipPath4472"
       clipPathUnits="userSpaceOnUse">
      <path
         inkscape:connector-curvature="0"
         id="path4474"
         d="M 0,800 800,800 800,0 0,0 0,800 Z" />
    </clipPath>
    <clipPath
       id="clipPath4506"
       clipPathUnits="userSpaceOnUse">
      <path
         inkscape:connector-curvature="0"
         id="path4508"
         d="M 0,800 800,800 800,0 0,0 0,800 Z" />
    </clipPath>
    <clipPath
       id="clipPath4846"
       clipPathUnits="userSpaceOnUse">
      <path
         inkscape:connector-curvature="0"
         id="path4848"
         d="M 0,800 800,800 800,0 0,0 0,800 Z" />
    </clipPath>
    <clipPath
       id="clipPath4866"
       clipPathUnits="userSpaceOnUse">
      <path
         inkscape:connector-curvature="0"
         id="path4868"
         d="M 0,800 800,800 800,0 0,0 0,800 Z" />
    </clipPath>
    <clipPath
       id="clipPath4890"
       clipPathUnits="userSpaceOnUse">
      <path
         inkscape:connector-curvature="0"
         id="path4892"
         d="M 0,800 800,800 800,0 0,0 0,800 Z" />
    </clipPath>
    <clipPath
       id="clipPath4922"
       clipPathUnits="userSpaceOnUse">
      <path
         inkscape:connector-curvature="0"
         id="path4924"
         d="M 0,800 800,800 800,0 0,0 0,800 Z" />
    </clipPath>
    <clipPath
       id="clipPath4942"
       clipPathUnits="userSpaceOnUse">
      <path
         inkscape:connector-curvature="0"
         id="path4944"
         d="M 0,800 800,800 800,0 0,0 0,800 Z" />
    </clipPath>
    <clipPath
       id="clipPath4962"
       clipPathUnits="userSpaceOnUse">
      <path
         inkscape:connector-curvature="0"
         id="path4964"
         d="M 0,800 800,800 800,0 0,0 0,800 Z" />
    </clipPath>
    <clipPath
       id="clipPath5170"
       clipPathUnits="userSpaceOnUse">
      <path
         inkscape:connector-curvature="0"
         id="path5172"
         d="M 0,800 800,800 800,0 0,0 0,800 Z" />
    </clipPath>
  </defs>
  <sodipodi:namedview
     pagecolor="#ffffff"
     bordercolor="#666666"
     borderopacity="1"
     objecttolerance="10"
     gridtolerance="10"
     guidetolerance="10"
     inkscape:pageopacity="0"
     inkscape:pageshadow="2"
     inkscape:window-width="1280"
     inkscape:window-height="961"
     id="namedview4138"
     showgrid="false"
     inkscape:zoom="0.27324213"
     inkscape:cx="1205.4515"
     inkscape:cy="106.40078"
     inkscape:window-x="1272"
     inkscape:window-y="-8"
     inkscape:window-maximized="1"
     inkscape:current-layer="svg4136"
     fit-margin-top="0"
     fit-margin-left="0"
     fit-margin-right="0"
     fit-margin-bottom="0" />
  <g
     id="g4392">
    <g
       id="g6306"
       transform="matrix(2.9204754,0,0,-2.9204754,577.20952,332.7637)">
      <path
         d="m 0,0 c 0,0 -38.16,4.242 -25.441,48.339 l -45.676,15.222 0,0.035 -0.058,-0.017 -0.054,0.017 0,-0.035 -45.677,-15.222 C -104.191,4.242 -142.348,0 -142.348,0 c 0,-77.166 68.201,-113.732 71.119,-115.259 l 0,-0.054 c 0,0 0.022,0.008 0.054,0.027 0.035,-0.019 0.058,-0.027 0.058,-0.027 l 0,0.054 C -68.198,-113.732 0,-77.166 0,0"
         style="fill:#c4a674;fill-opacity:1;fill-rule:nonzero;stroke:none"
         id="path6308"
         inkscape:connector-curvature="0" />
    </g>
    <g
       id="g6310"
       transform="matrix(2.9204754,0,0,-2.9204754,562.08933,341.13031)">
      <path
         d="m 0,0 c 0,0 -36.88,6.133 -25.082,47.023 l -40.863,12.905 0,0.03 -0.053,-0.013 -0.048,0.013 0,-0.03 -40.965,-13.301 C -95.216,5.741 -131.997,0 -131.997,0 c 0,-71.562 63.242,-104.476 65.951,-105.897 l 0,-0.052 c 0,0 0.017,0.012 0.048,0.024 0.035,-0.012 0.053,-0.024 0.053,-0.024 l 0,0.052 C -63.241,-104.476 0,-71.562 0,0"
         style="fill:#982439;fill-opacity:1;fill-rule:nonzero;stroke:none"
         id="path6312"
         inkscape:connector-curvature="0" />
    </g>
    <g
       id="g6314"
       transform="matrix(2.9204754,0,0,-2.9204754,369.48923,176.76361)">
      <path
         d="M 0,0 -0.05,-0.013 -0.096,0 l 0,-0.029 -37.539,-12.711 c 9.96,-39.422 -24.721,-45.704 -24.721,-45.704 0,-68.389 59.702,-98.701 62.26,-100.059 l 0,-0.049 c 0,0 0.017,0.011 0.046,0.023 0.033,-0.012 0.05,-0.023 0.05,-0.023 l 0,0.049 c 2.553,1.358 62.256,31.67 62.256,100.059 0,0 -35.793,7.198 -24.655,46.276 L 0,-0.029 0,0 Z m -0.044,-0.655 36.9,-11.913 c -3.355,-12.172 -2.517,-22.511 2.495,-30.734 6.875,-11.281 19.641,-14.967 22.295,-15.625 -0.112,-27.769 -9.971,-52.499 -29.306,-73.512 -13.764,-14.96 -28.172,-23.177 -32.388,-25.401 -4.22,2.224 -18.602,10.423 -32.368,25.373 -19.349,21.016 -29.215,45.753 -29.33,73.531 2.596,0.6 14.622,3.888 21.515,14.593 5.265,8.177 6.382,18.674 3.322,31.206 l 36.865,12.482"
         style="fill:#c4a674;fill-opacity:1;fill-rule:nonzero;stroke:none"
         id="path6316"
         inkscape:connector-curvature="0" />
    </g>
    <g
       style="fill:#982439;fill-opacity:1"
       transform="matrix(2.9204754,0,0,-2.9204754,-293.35182,1989.9281)"
       clip-path="url(#clipPath4962)"
       id="g6320">
      <g
         style="fill:#982439;fill-opacity:1"
         transform="translate(254.8076,653.6743)"
         id="g6322">
        <path
           inkscape:connector-curvature="0"
           id="path6324"
           style="fill:#c4a674;fill-opacity:1;fill-rule:nonzero;stroke:none"
           d="m 0,0 c -5.066,3.541 -5.657,-1.967 -5.657,-1.967 -2.459,-2.262 -0.936,-4.477 -0.936,-4.477 0.444,2.509 3.985,1.328 3.985,1.328 -0.196,-7.477 -7.084,-8.953 -10.576,-8.757 -3.491,0.197 -0.689,6.592 -0.689,6.592 -1.524,-0.835 -3.344,-5.312 -7.084,-4.23 -3.738,1.082 -2.853,12.199 -2.509,14.119 0.345,1.918 0.985,3.935 3.788,3.885 2.805,-0.048 0.739,-4.18 0.739,-4.18 5.312,-1.082 3.247,4.917 3.247,4.917 -2.804,6.79 -7.725,0.789 -8.51,-0.934 -0.788,-1.72 -1.379,-0.049 -1.379,-0.049 0.296,5.608 4.772,7.478 4.772,7.478 -0.935,2.459 -5.902,-0.098 -5.902,-0.098 l 0,2.411 c 2.95,0.737 1.622,2.508 1.622,2.508 -1.622,1.918 -2.804,9.151 -2.804,9.151 0,0 -1.18,-7.233 -2.804,-9.151 0,0 -1.328,-1.771 1.624,-2.508 l 0,-2.411 c 0,0 -4.969,2.557 -5.903,0.098 0,0 4.476,-1.87 4.771,-7.478 0,0 -0.59,-1.671 -1.377,0.049 -0.787,1.723 -5.707,7.724 -8.511,0.934 0,0 -2.066,-5.999 3.247,-4.917 0,0 -2.066,4.132 0.738,4.18 2.804,0.05 3.443,-1.967 3.788,-3.885 0.344,-1.92 1.23,-13.037 -2.509,-14.119 -3.738,-1.082 -5.559,3.395 -7.084,4.23 0,0 2.804,-6.395 -0.689,-6.592 -3.492,-0.196 -10.379,1.28 -10.576,8.757 0,0 3.542,1.181 3.984,-1.328 0,0 1.525,2.215 -0.935,4.477 0,0 -0.589,5.508 -5.655,1.967 0,0 -4.675,5.608 -11.364,3.788 0,0 13.134,-9.741 17.856,-20.513 0,0 9.852,-4.133 21.399,-3.837 11.291,-0.444 21.399,3.837 21.399,3.837 C -1.77,-5.953 11.363,3.788 11.363,3.788 4.674,5.608 0,0 0,0" />
      </g>
      <g
         style="fill:#982439;fill-opacity:1"
         transform="translate(312.9932,480.23)"
         id="g6326">
        <path
           inkscape:connector-curvature="0"
           id="path6328"
           style="fill:#982439;fill-opacity:1;fill-rule:nonzero;stroke:none"
           d="m 0,0 c 0.27,0.185 0.575,0.457 0.977,0.676 0.399,0.222 0.852,0.477 1.356,0.739 0.506,0.258 1.081,0.469 1.686,0.712 0.602,0.252 1.266,0.416 1.946,0.62 0.682,0.193 1.402,0.33 2.131,0.475 0.732,0.119 1.48,0.213 2.227,0.309 0.752,0.04 1.502,0.115 2.24,0.127 0.74,0.021 1.468,0.015 2.17,-0.017 0.702,-0.013 1.379,-0.077 2.02,-0.139 0.641,-0.044 1.243,-0.149 1.797,-0.223 2.22,-0.339 3.643,-0.825 3.643,-0.825 0,0 -0.373,0.005 -1.025,0.017 -0.647,0.007 -1.57,0.016 -2.679,0.028 C 17.938,2.495 17.341,2.489 16.708,2.485 16.078,2.48 15.415,2.458 14.729,2.437 14.044,2.434 13.338,2.363 12.622,2.337 11.904,2.313 11.182,2.223 10.455,2.168 9.734,2.089 9.011,2.016 8.303,1.916 7.604,1.777 6.897,1.724 6.235,1.571 5.579,1.408 4.917,1.33 4.322,1.151 3.727,0.973 3.142,0.854 2.623,0.684 2.112,0.5 1.633,0.343 1.206,0.204 0.781,0.062 0.437,-0.119 0.135,-0.237 c -0.597,-0.249 -0.951,-0.386 -0.951,-0.386 0,0 0.287,0.232 0.816,0.623 m 7.999,-3.597 c 0,0 9.439,-6.737 9.357,-1.917 0,0 2.92,-1.007 2.456,1.44 0,0 0.376,1.622 -1.207,2.792 3.06,-1.137 7.77,-2.555 6.153,0.186 0,0 11.659,3.496 -1.171,6.393 0,0 3.048,5.374 -7.295,3.167 0,0 -0.857,5.413 -6.906,-0.451 0,0 -4.7,2.162 -5.611,-4.275 0,0 -5.589,1.164 -5.224,-4.733 0,0 9.523,-8.072 9.448,-2.602" />
      </g>
      <g
         style="fill:#982439;fill-opacity:1"
         transform="translate(293.1489,476.2402)"
         id="g6330">
        <path
           inkscape:connector-curvature="0"
           id="path6332"
           style="fill:#982439;fill-opacity:1;fill-rule:nonzero;stroke:none"
           d="m 0,0 c 0.309,-0.105 0.71,-0.187 1.127,-0.377 0.417,-0.187 0.892,-0.398 1.403,-0.644 0.511,-0.25 1.024,-0.584 1.581,-0.922 0.563,-0.331 1.092,-0.765 1.661,-1.188 0.565,-0.431 1.104,-0.924 1.658,-1.421 0.534,-0.516 1.057,-1.059 1.582,-1.599 0.482,-0.578 0.991,-1.133 1.444,-1.718 0.459,-0.58 0.89,-1.166 1.285,-1.749 0.41,-0.569 0.765,-1.149 1.099,-1.699 0.349,-0.539 0.625,-1.084 0.898,-1.572 1.059,-1.98 1.521,-3.412 1.521,-3.412 0,0 -0.218,0.302 -0.6,0.831 -0.383,0.522 -0.928,1.267 -1.582,2.161 -0.334,0.439 -0.695,0.915 -1.078,1.418 -0.382,0.502 -0.796,1.021 -1.225,1.557 -0.412,0.546 -0.891,1.069 -1.341,1.628 -0.451,0.56 -0.954,1.083 -1.434,1.633 -0.496,0.529 -0.987,1.067 -1.491,1.572 -0.53,0.476 -0.995,1.011 -1.514,1.449 -0.524,0.429 -0.984,0.911 -1.483,1.281 -0.5,0.37 -0.945,0.767 -1.392,1.08 -0.453,0.298 -0.866,0.588 -1.233,0.847 -0.368,0.255 -0.719,0.423 -0.995,0.594 -0.557,0.329 -0.878,0.531 -0.878,0.531 0,0 0.358,-0.092 0.987,-0.281 m 1.911,-8.559 c 0,0 0.26,-11.595 4.069,-8.642 0,0 0.944,-2.941 2.626,-1.105 0,0 1.524,0.672 1.512,2.639 0.924,-3.13 2.609,-7.751 3.835,-4.815 0,0 9.784,-7.241 4.418,4.768 0,0 6.129,0.778 -1.834,7.738 0,0 3.821,3.929 -4.498,5.26 0,0 -1.084,5.06 -6.784,1.932 0,0 -2.417,5.173 -6.919,1.348 0,0 -0.76,-12.461 3.575,-9.123" />
      </g>
      <g
         style="fill:#982439;fill-opacity:1"
         transform="translate(269.6465,465.8081)"
         id="g6334">
        <path
           inkscape:connector-curvature="0"
           id="path6336"
           style="fill:#982439;fill-opacity:1;fill-rule:nonzero;stroke:none"
           d="M 0,0 C 0.325,0.022 0.727,0.101 1.185,0.087 1.642,0.077 2.161,0.066 2.729,0.037 3.295,0.003 3.898,-0.106 4.542,-0.201 5.19,-0.29 5.845,-0.485 6.534,-0.654 c 0.687,-0.179 1.376,-0.425 2.078,-0.67 0.693,-0.268 1.384,-0.567 2.077,-0.863 0.669,-0.345 1.353,-0.66 1.996,-1.024 0.648,-0.358 1.273,-0.731 1.862,-1.115 0.599,-0.366 1.15,-0.764 1.671,-1.142 0.531,-0.363 0.996,-0.758 1.437,-1.102 1.741,-1.416 2.722,-2.558 2.722,-2.558 0,0 -0.319,0.194 -0.874,0.534 -0.555,0.333 -1.346,0.81 -2.295,1.382 -0.479,0.275 -0.996,0.573 -1.544,0.889 -0.545,0.315 -1.128,0.634 -1.731,0.962 -0.592,0.344 -1.236,0.641 -1.867,0.982 -0.632,0.341 -1.299,0.63 -1.953,0.952 -0.662,0.295 -1.324,0.601 -1.984,0.872 -0.673,0.234 -1.309,0.547 -1.957,0.75 -0.649,0.193 -1.259,0.459 -1.863,0.607 -0.603,0.148 -1.167,0.343 -1.7,0.458 -0.535,0.1 -1.027,0.207 -1.466,0.304 -0.438,0.093 -0.827,0.112 -1.147,0.163 -0.642,0.087 -1.015,0.15 -1.015,0.15 0,0 0.365,0.053 1.019,0.123 m 5.074,-7.153 c 0,0 4.725,-10.592 7.096,-6.395 0,0 2.008,-2.346 2.848,-0.002 0,0 1.146,1.209 0.374,3.018 2.062,-2.53 5.404,-6.138 5.399,-2.957 0,0 11.823,-2.891 2.228,6.107 0,0 5.352,3.088 -4.685,6.425 0,0 2.003,5.102 -6.182,3.11 0,0 -2.957,4.246 -7.004,-0.843 0,0 -4.229,3.835 -6.901,-1.434 0,0 4.12,-11.784 6.827,-7.029" />
      </g>
      <g
         style="fill:#982439;fill-opacity:1"
         transform="translate(292.6465,478.5952)"
         id="g6338">
        <path
           inkscape:connector-curvature="0"
           id="path6340"
           style="fill:#982439;fill-opacity:1;fill-rule:nonzero;stroke:none"
           d="m 0,0 c 0,0 0.302,0.23 0.828,0.607 0.259,0.196 0.593,0.394 0.937,0.682 0.343,0.29 0.729,0.614 1.154,0.952 0.417,0.351 0.825,0.788 1.289,1.2 0.465,0.413 0.88,0.934 1.364,1.407 0.477,0.483 0.893,1.057 1.379,1.578 0.457,0.549 0.899,1.128 1.346,1.699 0.429,0.59 0.883,1.157 1.282,1.754 0.398,0.597 0.829,1.16 1.192,1.741 0.378,0.571 0.746,1.127 1.081,1.66 0.336,0.534 0.653,1.041 0.947,1.507 0.573,0.949 1.05,1.74 1.384,2.295 0.333,0.56 0.524,0.88 0.524,0.88 0,0 -0.334,-1.467 -1.212,-3.533 C 13.266,13.918 13.041,13.352 12.74,12.783 12.457,12.205 12.155,11.596 11.797,10.992 11.456,10.377 11.078,9.755 10.672,9.136 10.274,8.514 9.816,7.915 9.386,7.297 8.912,6.712 8.44,6.125 7.954,5.564 7.447,5.019 6.954,4.479 6.43,4.001 5.899,3.529 5.411,3.05 4.88,2.669 4.355,2.283 3.874,1.905 3.388,1.611 2.9,1.32 2.446,1.068 2.047,0.845 1.649,0.619 1.256,0.501 0.958,0.369 0.348,0.125 0,0 0,0 m -0.649,-0.342 c 4.825,-3.408 6.772,1.958 6.772,1.958 5.956,-2.607 6.584,2.529 6.584,2.529 8.168,2.065 4.013,5.638 4.013,5.638 7.313,7.642 1.138,7.871 1.138,7.871 4.277,12.439 -4.824,4.356 -4.824,4.356 -1.482,2.817 -2.75,-1.937 -3.391,-5.136 -0.164,1.959 -1.741,2.493 -1.741,2.493 -1.839,1.679 -2.517,-1.334 -2.517,-1.334 -4.057,2.603 -3.284,-8.97 -3.284,-8.97 -4.615,2.939 -2.75,-9.405 -2.75,-9.405" />
      </g>
      <g
         style="fill:#982439;fill-opacity:1"
         transform="translate(274.5063,472.1206)"
         id="g6342">
        <path
           inkscape:connector-curvature="0"
           id="path6344"
           style="fill:#982439;fill-opacity:1;fill-rule:nonzero;stroke:none"
           d="m 0,0 c 0,0 0.213,0.315 0.59,0.841 0.183,0.267 0.436,0.563 0.67,0.945 0.231,0.385 0.493,0.816 0.787,1.272 0.283,0.467 0.529,1.011 0.837,1.551 0.308,0.539 0.533,1.166 0.841,1.769 0.297,0.611 0.507,1.288 0.8,1.937 0.257,0.667 0.491,1.356 0.731,2.041 0.216,0.696 0.466,1.379 0.652,2.073 0.186,0.692 0.413,1.364 0.571,2.03 0.175,0.664 0.346,1.306 0.492,1.919 0.147,0.615 0.285,1.195 0.414,1.732 0.239,1.082 0.436,1.984 0.575,2.616 0.137,0.638 0.214,1.003 0.214,1.003 0,0 0.155,-1.498 -0.015,-3.736 C 8.106,17.436 8.074,16.827 7.972,16.192 7.889,15.554 7.798,14.88 7.652,14.193 7.526,13.502 7.368,12.791 7.181,12.076 7.003,11.358 6.762,10.644 6.554,9.921 6.292,9.214 6.032,8.507 5.75,7.82 5.446,7.142 5.151,6.472 4.809,5.851 4.457,5.233 4.149,4.624 3.768,4.093 3.394,3.56 3.059,3.046 2.693,2.612 2.324,2.18 1.976,1.795 1.668,1.457 1.364,1.115 1.03,0.877 0.791,0.656 0.29,0.229 0,0 0,0 m -0.505,-0.531 c 5.663,-1.683 5.787,4.025 5.787,4.025 6.477,-0.561 5.427,4.505 5.427,4.505 7.075,4.574 1.995,6.627 1.995,6.627 4.477,9.583 -1.445,7.821 -1.445,7.821 0.064,13.153 -5.966,2.58 -5.966,2.58 C 2.986,27.219 3.308,22.311 3.727,19.074 2.943,20.878 1.278,20.878 1.278,20.878 -1,21.88 -0.678,18.808 -0.678,18.808 -5.356,19.973 -0.914,9.259 -0.914,9.259 c -5.314,1.305 0.409,-9.79 0.409,-9.79" />
      </g>
      <g
         style="fill:#982439;fill-opacity:1"
         transform="translate(250.6108,449.1313)"
         id="g6346">
        <path
           inkscape:connector-curvature="0"
           id="path6348"
           style="fill:none;fill-opacity:1;stroke:#982439;stroke-width:1.523;stroke-linecap:butt;stroke-linejoin:miter;stroke-miterlimit:10;stroke-dasharray:none;stroke-opacity:1"
           d="M 0,0 C 0,0 19.705,33.839 67.746,30.433" />
      </g>
      <g
         style="fill:#982439;fill-opacity:1"
         transform="translate(331.5996,533.7959)"
         id="g6350">
        <path
           inkscape:connector-curvature="0"
           id="path6352"
           style="fill:#982439;fill-opacity:1;fill-rule:nonzero;stroke:none"
           d="M 0,0 C 0.144,0.232 0.287,0.544 0.52,0.849 0.75,1.155 1.011,1.502 1.309,1.874 1.608,2.243 1.977,2.6 2.357,2.99 2.733,3.388 3.187,3.737 3.638,4.124 4.095,4.504 4.6,4.852 5.11,5.209 5.63,5.548 6.171,5.874 6.711,6.2 c 0.562,0.286 1.111,0.597 1.673,0.856 0.559,0.267 1.118,0.509 1.668,0.722 0.541,0.227 1.081,0.408 1.593,0.577 0.506,0.184 1.002,0.307 1.452,0.439 1.815,0.492 3.07,0.601 3.07,0.601 0,0 -0.288,-0.122 -0.791,-0.333 C 14.878,8.847 14.167,8.542 13.315,8.175 12.895,7.985 12.438,7.779 11.956,7.561 11.475,7.345 10.973,7.103 10.457,6.854 9.932,6.62 9.416,6.327 8.876,6.064 8.334,5.803 7.812,5.489 7.273,5.202 6.749,4.896 6.219,4.596 5.71,4.279 5.223,3.936 4.699,3.656 4.243,3.315 3.796,2.968 3.316,2.683 2.921,2.345 2.525,2.007 2.117,1.718 1.778,1.412 1.449,1.098 1.135,0.815 0.855,0.564 0.578,0.312 0.375,0.057 0.183,-0.136 c -0.372,-0.393 -0.598,-0.617 -0.598,-0.617 0,0 0.143,0.274 0.415,0.753 m 7.345,-0.046 c 0,0 9.511,-1.963 7.815,1.7 0,0 2.578,0.218 1.394,1.935 0,0 -0.261,1.37 -1.869,1.73 2.728,0.165 6.815,0.675 4.649,2.225 0,0 7.746,6.627 -3.063,4.501 0,0 0.516,5.149 -6.659,-0.045 0,0 -2.49,3.856 -5.136,-2.685 0,0 -4.332,0.065 -2.851,-5.174 0,0 -4.674,-1.001 -2.398,-5.393 0,0 10.027,-2.958 8.118,1.206" />
      </g>
      <g
         style="fill:#982439;fill-opacity:1"
         transform="translate(320.1099,526.23)"
         id="g6354">
        <path
           inkscape:connector-curvature="0"
           id="path6356"
           style="fill:#982439;fill-opacity:1;fill-rule:nonzero;stroke:none"
           d="M 0,0 C 0.272,0.023 0.607,0.097 0.99,0.092 1.374,0.091 1.809,0.09 2.284,0.075 2.759,0.056 3.266,-0.025 3.807,-0.096 4.35,-0.16 4.901,-0.313 5.481,-0.444 6.06,-0.582 6.64,-0.778 7.232,-0.971 7.816,-1.185 8.399,-1.423 8.985,-1.66 c 0.566,-0.278 1.143,-0.531 1.688,-0.826 0.548,-0.289 1.077,-0.592 1.576,-0.904 0.507,-0.298 0.976,-0.621 1.418,-0.93 0.45,-0.294 0.846,-0.618 1.22,-0.9 1.481,-1.158 2.321,-2.097 2.321,-2.097 0,0 -0.27,0.157 -0.742,0.433 -0.469,0.27 -1.139,0.656 -1.943,1.119 -0.405,0.224 -0.842,0.465 -1.307,0.722 -0.462,0.253 -0.954,0.511 -1.464,0.776 -0.502,0.28 -1.045,0.517 -1.58,0.793 -0.534,0.276 -1.097,0.507 -1.651,0.766 -0.558,0.237 -1.117,0.482 -1.674,0.698 -0.567,0.186 -1.104,0.438 -1.65,0.598 -0.547,0.151 -1.062,0.364 -1.57,0.478 -0.507,0.115 -0.983,0.268 -1.431,0.356 -0.449,0.075 -0.863,0.158 -1.232,0.231 -0.368,0.071 -0.694,0.081 -0.963,0.119 -0.538,0.063 -0.852,0.109 -0.852,0.109 0,0 0.306,0.05 0.851,0.119 m 4.362,-5.908 c 0,0 4.126,-8.793 6.044,-5.241 0,0 1.719,-1.933 2.385,0.044 0,0 0.939,1.03 0.264,2.532 1.767,-2.084 4.624,-5.053 4.568,-2.389 0,0 9.946,-2.232 1.768,5.148 0,0 4.432,2.671 -4.025,5.306 0,0 1.597,4.302 -5.226,2.505 0,0 -2.544,3.508 -5.849,-0.818 0,0 -3.603,3.143 -5.757,-1.311 0,0 3.639,-9.801 5.828,-5.776" />
      </g>
      <g
         style="fill:#982439;fill-opacity:1"
         transform="translate(303.3486,508.9473)"
         id="g6358">
        <path
           inkscape:connector-curvature="0"
           id="path6360"
           style="fill:#982439;fill-opacity:1;fill-rule:nonzero;stroke:none"
           d="m 0,0 c 0.242,0.127 0.524,0.323 0.878,0.468 0.354,0.148 0.755,0.314 1.2,0.485 0.444,0.166 0.943,0.286 1.469,0.431 0.526,0.152 1.095,0.224 1.68,0.328 0.586,0.096 1.197,0.14 1.817,0.19 0.622,0.03 1.253,0.036 1.884,0.044 0.629,-0.038 1.26,-0.049 1.875,-0.11 0.618,-0.054 1.222,-0.128 1.804,-0.223 0.583,-0.077 1.14,-0.195 1.667,-0.308 0.529,-0.098 1.019,-0.243 1.474,-0.358 1.814,-0.495 2.95,-1.037 2.95,-1.037 0,0 -0.309,0.041 -0.85,0.113 C 17.311,0.09 16.543,0.187 15.622,0.304 15.163,0.352 14.666,0.406 14.139,0.463 13.614,0.519 13.06,0.566 12.487,0.612 11.917,0.676 11.324,0.685 10.725,0.733 10.125,0.78 9.517,0.776 8.907,0.801 8.299,0.802 7.689,0.812 7.092,0.797 6.498,0.748 5.904,0.772 5.338,0.708 4.776,0.636 4.219,0.633 3.707,0.542 3.195,0.451 2.696,0.41 2.249,0.318 1.806,0.212 1.392,0.128 1.023,0.054 0.657,-0.024 0.353,-0.141 0.09,-0.21 c -0.521,-0.15 -0.828,-0.229 -0.828,-0.229 0,0 0.261,0.165 0.738,0.439 m 6.309,-3.76 c 0,0 7.206,-6.511 7.601,-2.494 0,0 2.332,-1.118 2.181,0.962 0,0 0.469,1.314 -0.736,2.438 2.437,-1.239 6.219,-2.871 5.137,-0.436 0,0 10.035,1.789 -0.361,5.432 0,0 3.053,4.178 -5.764,3.335 0,0 -0.193,4.585 -5.789,0.288 0,0 -3.702,2.25 -5.078,-3.018 0,0 -4.538,1.504 -4.801,-3.435 0,0 7.148,-7.631 7.61,-3.072" />
      </g>
      <g
         style="fill:#982439;fill-opacity:1"
         transform="translate(314.5234,524.7207)"
         id="g6362">
        <path
           inkscape:connector-curvature="0"
           id="path6364"
           style="fill:#982439;fill-opacity:1;fill-rule:nonzero;stroke:none"
           d="m 0,0 c 0,0 0.153,0.278 0.428,0.745 0.134,0.238 0.322,0.503 0.488,0.839 0.165,0.338 0.35,0.718 0.562,1.12 0.199,0.411 0.364,0.883 0.581,1.357 0.215,0.472 0.356,1.012 0.567,1.539 0.202,0.531 0.326,1.112 0.521,1.675 0.166,0.575 0.308,1.168 0.457,1.757 0.127,0.597 0.284,1.186 0.387,1.779 0.103,0.591 0.243,1.168 0.324,1.736 0.096,0.566 0.189,1.116 0.265,1.638 0.077,0.523 0.149,1.018 0.216,1.475 0.117,0.921 0.213,1.688 0.283,2.226 0.065,0.542 0.102,0.852 0.102,0.852 0,0 0.242,-1.237 0.269,-3.117 C 5.448,15.152 5.466,14.643 5.429,14.104 5.408,13.566 5.383,12.998 5.313,12.413 5.259,11.827 5.182,11.222 5.08,10.61 4.985,10 4.838,9.386 4.718,8.768 4.553,8.159 4.391,7.548 4.208,6.955 4.004,6.365 3.809,5.785 3.57,5.241 3.323,4.7 3.112,4.168 2.833,3.696 2.563,3.223 2.322,2.771 2.05,2.38 1.774,1.992 1.512,1.646 1.282,1.34 1.054,1.032 0.793,0.809 0.609,0.606 0.225,0.213 0,0 0,0 m -0.382,-0.482 c 4.85,-0.976 4.525,3.794 4.525,3.794 5.444,0.019 4.187,4.166 4.187,4.166 5.556,4.348 1.163,5.677 1.163,5.677 C 12.507,21.484 7.7,19.568 7.7,19.568 6.762,30.544 2.529,21.271 2.529,21.271 0.44,22.926 1.079,18.856 1.671,16.189 c -0.788,1.445 -2.178,1.32 -2.178,1.32 -1.976,0.663 -1.475,-1.874 -1.475,-1.874 -3.989,0.619 0.522,-7.982 0.522,-7.982 -4.53,0.688 1.078,-8.135 1.078,-8.135" />
      </g>
      <g
         style="fill:#982439;fill-opacity:1"
         transform="translate(305.0615,513.9409)"
         id="g6366">
        <path
           inkscape:connector-curvature="0"
           id="path6368"
           style="fill:#982439;fill-opacity:1;fill-rule:nonzero;stroke:none"
           d="M 0,0 C 0,0 0.056,0.313 0.167,0.843 0.216,1.111 0.311,1.422 0.359,1.794 0.407,2.167 0.46,2.585 0.532,3.035 0.59,3.488 0.595,3.989 0.648,4.506 0.701,5.023 0.662,5.581 0.692,6.146 0.713,6.714 0.645,7.304 0.649,7.9 0.62,8.499 0.566,9.105 0.518,9.71 c -0.07,0.607 -0.111,1.215 -0.203,1.809 -0.091,0.593 -0.145,1.186 -0.25,1.749 -0.09,0.567 -0.177,1.117 -0.273,1.636 -0.095,0.521 -0.186,1.013 -0.269,1.467 -0.184,0.909 -0.337,1.668 -0.445,2.198 -0.112,0.535 -0.176,0.841 -0.176,0.841 0,0 0.625,-1.095 1.253,-2.866 C 0.303,16.099 0.484,15.621 0.622,15.101 0.774,14.583 0.933,14.037 1.054,13.462 1.191,12.889 1.312,12.291 1.41,11.68 1.518,11.07 1.574,10.441 1.66,9.817 1.698,9.188 1.739,8.557 1.756,7.937 1.752,7.314 1.753,6.701 1.702,6.109 1.641,5.518 1.612,4.946 1.5,4.41 1.393,3.875 1.311,3.369 1.178,2.912 1.041,2.456 0.905,2.044 0.784,1.68 0.667,1.315 0.492,1.02 0.383,0.77 0.144,0.273 0,0 0,0 m -0.207,-0.578 c 4.908,0.629 3.069,5.042 3.069,5.042 5.151,1.764 2.631,5.288 2.631,5.288 3.869,5.9 -0.717,5.752 -0.717,5.752 0.184,8.856 -3.755,5.5 -3.755,5.5 -4.405,10.096 -5.443,-0.044 -5.443,-0.044 -2.509,0.898 -0.6,-2.752 0.817,-5.089 -1.211,1.116 -2.487,0.552 -2.487,0.552 -2.085,-0.005 -0.797,-2.248 -0.797,-2.248 -3.977,-0.693 3.053,-7.394 3.053,-7.394 -4.512,-0.8 3.629,-7.359 3.629,-7.359" />
      </g>
      <g
         style="fill:#982439;fill-opacity:1"
         transform="translate(294.7671,489.2676)"
         id="g6370">
        <path
           inkscape:connector-curvature="0"
           id="path6372"
           style="fill:none;fill-opacity:1;stroke:#982439;stroke-width:1.27499998;stroke-linecap:butt;stroke-linejoin:miter;stroke-miterlimit:10;stroke-dasharray:none;stroke-opacity:1"
           d="M 0,0 C 0,0 3.632,32.591 41.58,46.251" />
      </g>
      <g
         style="fill:#982439;fill-opacity:1"
         transform="translate(321.3472,585.0425)"
         id="g6374">
        <path
           inkscape:connector-curvature="0"
           id="path6376"
           style="fill:#982439;fill-opacity:1;fill-rule:nonzero;stroke:none"
           d="M 0,0 C -0.009,0.224 -0.054,0.502 -0.034,0.815 -0.016,1.129 0.002,1.484 0.035,1.874 0.071,2.262 0.159,2.673 0.24,3.112 0.314,3.555 0.464,4 0.595,4.468 0.733,4.936 0.917,5.403 1.102,5.88 c 0.199,0.468 0.419,0.936 0.637,1.406 0.253,0.451 0.484,0.913 0.748,1.346 0.26,0.436 0.53,0.857 0.806,1.253 0.266,0.402 0.551,0.771 0.822,1.12 0.261,0.356 0.543,0.666 0.789,0.961 1.011,1.163 1.816,1.811 1.816,1.811 0,0 -0.141,-0.214 -0.387,-0.588 C 6.092,12.815 5.748,12.283 5.334,11.644 5.135,11.323 4.918,10.975 4.689,10.606 4.461,10.239 4.229,9.846 3.991,9.44 3.741,9.042 3.522,8.606 3.275,8.181 3.026,7.756 2.813,7.304 2.578,6.862 2.36,6.415 2.136,5.968 1.935,5.521 1.759,5.064 1.53,4.635 1.376,4.195 1.23,3.754 1.033,3.341 0.918,2.93 0.803,2.519 0.658,2.137 0.565,1.773 0.484,1.409 0.4,1.074 0.324,0.775 0.25,0.476 0.229,0.21 0.187,-0.008 0.112,-0.446 0.061,-0.702 0.061,-0.702 0.061,-0.702 0.033,-0.45 0,0 m 5.021,3.321 c 0,0 7.373,3.005 4.546,4.725 0,0 1.656,1.326 0.066,1.954 0,0 -0.803,0.813 -2.062,0.325 1.782,1.358 4.333,3.57 2.15,3.637 0,0 2.249,8.048 -4.139,1.667 0,0 -2,3.741 -4.515,-3.071 0,0 -3.456,1.49 -2.272,-4.172 0,0 -2.979,-1.933 0.421,-4.824 0,0 -2.726,-2.815 0.829,-4.767 0,0 8.178,2.562 4.976,4.526" />
      </g>
      <g
         style="fill:#982439;fill-opacity:1"
         transform="translate(317.772,574.0635)"
         id="g6378">
        <path
           inkscape:connector-curvature="0"
           id="path6380"
           style="fill:#982439;fill-opacity:1;fill-rule:nonzero;stroke:none"
           d="m 0,0 c 0.175,0.14 0.37,0.343 0.632,0.515 0.262,0.173 0.559,0.372 0.889,0.578 0.333,0.204 0.715,0.38 1.115,0.579 0.399,0.204 0.844,0.352 1.299,0.528 0.458,0.17 0.941,0.301 1.432,0.44 0.496,0.121 1.002,0.225 1.508,0.331 0.513,0.069 1.021,0.16 1.527,0.207 0.505,0.054 1.004,0.09 1.486,0.105 0.481,0.028 0.948,0.022 1.39,0.013 0.441,0.006 0.858,-0.034 1.242,-0.056 1.536,-0.112 2.537,-0.368 2.537,-0.368 0,0 -0.256,-0.016 -0.703,-0.044 C 13.911,2.798 13.279,2.755 12.52,2.704 12.142,2.671 11.734,2.636 11.301,2.599 10.871,2.56 10.417,2.511 9.949,2.459 9.48,2.42 9.001,2.334 8.512,2.277 8.022,2.222 7.533,2.123 7.039,2.045 6.55,1.952 6.058,1.864 5.58,1.757 5.109,1.625 4.627,1.551 4.183,1.411 3.742,1.264 3.294,1.174 2.896,1.02 2.498,0.866 2.104,0.753 1.759,0.609 1.419,0.455 1.1,0.322 0.815,0.204 0.532,0.084 0.305,-0.058 0.105,-0.154 c -0.396,-0.203 -0.63,-0.316 -0.63,-0.316 0,0 0.185,0.174 0.525,0.47 m 5.667,-2.032 c 0,0 6.823,-4.104 6.507,-0.809 0,0 2.053,-0.532 1.604,1.117 0,0 0.17,1.131 -0.975,1.845 2.154,-0.612 5.454,-1.33 4.2,0.458 0,0 7.792,3.021 -1.146,4.313 0,0 1.799,3.841 -5.162,1.775 0,0 -0.876,3.659 -4.702,-0.679 0,0 -3.333,1.227 -3.61,-3.227 0,0 -3.887,0.496 -3.32,-3.52 0,0 6.951,-5.012 6.604,-1.273" />
      </g>
      <g
         style="fill:#982439;fill-opacity:1"
         transform="translate(313.6104,554.5298)"
         id="g6382">
        <path
           inkscape:connector-curvature="0"
           id="path6384"
           style="fill:#982439;fill-opacity:1;fill-rule:nonzero;stroke:none"
           d="m 0,0 c 0.106,0.197 0.208,0.459 0.384,0.72 0.174,0.262 0.37,0.558 0.595,0.877 0.228,0.317 0.513,0.627 0.804,0.965 0.289,0.344 0.643,0.652 0.994,0.989 0.356,0.334 0.751,0.642 1.151,0.96 0.41,0.304 0.837,0.596 1.262,0.889 0.446,0.261 0.88,0.542 1.328,0.782 0.445,0.244 0.89,0.47 1.33,0.671 0.432,0.213 0.864,0.387 1.275,0.551 0.405,0.174 0.805,0.3 1.167,0.429 1.461,0.491 2.482,0.641 2.482,0.641 0,0 -0.23,-0.114 -0.63,-0.312 C 11.745,7.962 11.179,7.679 10.498,7.337 10.164,7.161 9.801,6.971 9.416,6.769 9.033,6.568 8.634,6.347 8.223,6.117 7.806,5.9 7.397,5.635 6.968,5.394 6.538,5.153 6.126,4.872 5.699,4.611 5.285,4.335 4.864,4.063 4.465,3.78 4.083,3.475 3.667,3.221 3.311,2.919 2.961,2.614 2.583,2.357 2.276,2.061 1.969,1.766 1.648,1.509 1.386,1.243 1.132,0.969 0.889,0.724 0.672,0.504 0.458,0.284 0.304,0.065 0.157,-0.102 c -0.286,-0.34 -0.46,-0.534 -0.46,-0.534 0,0 0.103,0.232 0.303,0.636 m 6.012,0.32 c 0,0 7.878,-1.145 6.314,1.77 0,0 2.097,0.304 1.046,1.651 0,0 -0.281,1.109 -1.614,1.325 2.224,0.268 5.545,0.883 3.697,2.047 0,0 6.016,5.799 -2.725,3.534 0,0 0.171,4.238 -5.448,-0.36 0,0 -2.224,3.034 -4.073,-2.446 0,0 -3.548,-0.157 -2.08,-4.373 0,0 -3.776,-1.046 -1.701,-4.53 0,0 8.349,-1.934 6.584,1.382" />
      </g>
      <g
         style="fill:#982439;fill-opacity:1"
         transform="translate(314.6514,572.3701)"
         id="g6386">
        <path
           inkscape:connector-curvature="0"
           id="path6388"
           style="fill:#982439;fill-opacity:1;fill-rule:nonzero;stroke:none"
           d="M 0,0 C 0,0 -0.023,0.26 -0.048,0.703 -0.067,0.926 -0.06,1.192 -0.1,1.498 c -0.042,0.304 -0.089,0.647 -0.129,1.018 -0.051,0.37 -0.155,0.767 -0.224,1.189 -0.068,0.42 -0.218,0.852 -0.316,1.306 -0.104,0.455 -0.285,0.907 -0.409,1.38 -0.15,0.466 -0.324,0.935 -0.491,1.404 -0.185,0.465 -0.348,0.937 -0.548,1.388 -0.2,0.45 -0.368,0.906 -0.573,1.33 -0.192,0.429 -0.379,0.846 -0.566,1.236 -0.187,0.391 -0.364,0.761 -0.526,1.103 -0.341,0.68 -0.625,1.247 -0.824,1.645 -0.203,0.399 -0.319,0.627 -0.319,0.627 0,0 0.729,-0.732 1.606,-2 0.212,-0.32 0.458,-0.659 0.678,-1.042 0.231,-0.376 0.473,-0.774 0.692,-1.205 0.231,-0.423 0.455,-0.871 0.664,-1.334 C -1.17,9.084 -0.99,8.599 -0.79,8.124 -0.624,7.634 -0.457,7.144 -0.31,6.656 -0.179,6.162 -0.047,5.678 0.038,5.198 0.117,4.717 0.216,4.259 0.242,3.81 0.273,3.364 0.315,2.946 0.309,2.557 0.299,2.167 0.278,1.811 0.261,1.498 0.246,1.184 0.17,0.912 0.138,0.691 0.055,0.248 0,0 0,0 m -0.041,-0.502 c 3.749,1.549 1.35,4.648 1.35,4.648 3.698,2.499 0.949,4.748 0.949,4.748 1.799,5.497 -1.799,4.397 -1.799,4.397 -1.75,7.046 -4.148,3.548 -4.148,3.548 -5.649,7.045 -4.298,-1.2 -4.298,-1.2 -2.178,0.173 0.115,-2.307 1.736,-3.853 -1.197,0.625 -2.086,-0.095 -2.086,-0.095 -1.649,-0.45 -0.15,-1.949 -0.15,-1.949 -2.998,-1.4 3.999,-5.197 3.999,-5.197 -3.398,-1.6 4.447,-5.047 4.447,-5.047" />
      </g>
      <g
         style="fill:#982439;fill-opacity:1"
         transform="translate(312.7007,560.0435)"
         id="g6390">
        <path
           inkscape:connector-curvature="0"
           id="path6392"
           style="fill:#982439;fill-opacity:1;fill-rule:nonzero;stroke:none"
           d="M 0,0 C 0,0 -0.105,0.238 -0.271,0.65 -0.359,0.855 -0.437,1.11 -0.574,1.385 -0.712,1.661 -0.866,1.971 -1.023,2.309 -1.19,2.645 -1.415,2.987 -1.616,3.364 -1.815,3.74 -2.097,4.101 -2.333,4.5 -2.579,4.897 -2.895,5.268 -3.164,5.676 -3.457,6.07 -3.77,6.458 -4.079,6.848 c -0.325,0.381 -0.63,0.777 -0.963,1.139 -0.333,0.362 -0.641,0.741 -0.97,1.077 -0.32,0.345 -0.631,0.68 -0.931,0.989 -0.304,0.311 -0.59,0.605 -0.854,0.876 -0.54,0.535 -0.991,0.981 -1.306,1.293 -0.321,0.314 -0.503,0.493 -0.503,0.493 0,0 0.924,-0.461 2.161,-1.38 0.303,-0.235 0.645,-0.478 0.976,-0.769 0.341,-0.282 0.698,-0.583 1.042,-0.92 0.355,-0.327 0.71,-0.679 1.056,-1.05 C -4.02,8.23 -3.694,7.828 -3.351,7.442 -3.037,7.03 -2.722,6.62 -2.426,6.205 -2.145,5.78 -1.865,5.363 -1.629,4.936 -1.4,4.505 -1.16,4.103 -0.992,3.687 -0.819,3.274 -0.645,2.892 -0.527,2.52 -0.412,2.147 -0.316,1.805 -0.232,1.501 -0.146,1.2 -0.13,0.918 -0.091,0.699 -0.026,0.251 0,0 0,0 m 0.123,-0.489 c 3.055,2.669 -0.212,4.835 -0.212,4.835 2.703,3.552 -0.622,4.801 -0.622,4.801 -0.059,5.784 -3.113,3.59 -3.113,3.59 -3.917,6.113 -5.068,2.031 -5.068,2.031 -7.608,4.864 -3.686,-2.515 -3.686,-2.515 -2.118,-0.534 0.848,-2.148 2.879,-3.093 -1.334,0.208 -1.945,-0.758 -1.945,-0.758 -1.417,-0.955 0.483,-1.895 0.483,-1.895 -2.391,-2.287 5.454,-3.641 5.454,-3.641 -2.707,-2.604 5.83,-3.355 5.83,-3.355" />
      </g>
      <g
         style="fill:#982439;fill-opacity:1"
         transform="translate(316.9604,537.9648)"
         id="g6394">
        <path
           inkscape:connector-curvature="0"
           id="path6396"
           style="fill:none;fill-opacity:1;stroke:#982439;stroke-width:1.04499996;stroke-linecap:butt;stroke-linejoin:miter;stroke-miterlimit:10;stroke-dasharray:none;stroke-opacity:1"
           d="M 0,0 C 0,0 -12.403,23.85 7.202,50.471" />
      </g>
      <g
         style="fill:#982439;fill-opacity:1"
         transform="translate(294.4121,612.4985)"
         id="g6398">
        <path
           inkscape:connector-curvature="0"
           id="path6400"
           style="fill:#982439;fill-opacity:1;fill-rule:nonzero;stroke:none"
           d="M 0,0 C -0.096,0.148 -0.238,0.317 -0.352,0.538 -0.467,0.756 -0.597,1.004 -0.731,1.28 -0.863,1.557 -0.97,1.871 -1.093,2.2 -1.221,2.528 -1.3,2.89 -1.4,3.26 c -0.096,0.37 -0.159,0.761 -0.227,1.157 -0.055,0.397 -0.095,0.802 -0.137,1.208 -0.011,0.406 -0.041,0.812 -0.037,1.21 -0.001,0.4 0.012,0.793 0.039,1.172 0.017,0.379 0.061,0.743 0.104,1.089 0.032,0.346 0.097,0.669 0.144,0.967 0.214,1.194 0.497,1.956 0.497,1.956 0,0 -0.008,-0.202 -0.024,-0.553 C -1.053,11.117 -1.071,10.618 -1.092,10.02 -1.098,9.722 -1.104,9.399 -1.11,9.058 -1.117,8.718 -1.114,8.358 -1.112,7.988 -1.12,7.618 -1.091,7.236 -1.086,6.849 -1.084,6.461 -1.045,6.07 -1.026,5.677 -0.992,5.287 -0.964,4.894 -0.92,4.511 -0.854,4.132 -0.835,3.75 -0.762,3.39 -0.684,3.033 -0.649,2.674 -0.561,2.351 -0.473,2.026 -0.417,1.709 -0.333,1.427 -0.241,1.148 -0.163,0.887 -0.094,0.655 -0.022,0.423 0.07,0.234 0.13,0.07 0.256,-0.256 0.325,-0.449 0.325,-0.449 0.325,-0.449 0.204,-0.291 0,0 m 2.053,4.27 c 0,0 3.77,5.004 1.166,5.026 0,0 0.584,1.564 -0.744,1.347 0,0 -0.871,0.225 -1.524,-0.613 0.656,1.637 1.487,4.16 -0.015,3.325 0,0 -1.727,6.344 -3.469,-0.543 0,0 -2.861,1.72 -1.811,-3.896 0,0 -2.936,-0.388 0.148,-3.736 0,0 -1.234,-2.508 2.23,-3.089 0,0 -0.706,-3.002 2.483,-2.886 0,0 4.491,5.029 1.536,5.065" />
      </g>
      <g
         style="fill:#982439;fill-opacity:1"
         transform="translate(296.4258,603.6392)"
         id="g6402">
        <path
           inkscape:connector-curvature="0"
           id="path6404"
           style="fill:#982439;fill-opacity:1;fill-rule:nonzero;stroke:none"
           d="m 0,0 c 0.062,0.165 0.111,0.38 0.22,0.603 0.106,0.222 0.227,0.476 0.367,0.749 0.142,0.272 0.33,0.544 0.519,0.841 0.188,0.299 0.429,0.578 0.665,0.88 0.241,0.3 0.515,0.584 0.791,0.875 C 2.847,4.23 3.147,4.504 3.447,4.78 3.765,5.033 4.072,5.3 4.396,5.536 4.714,5.776 5.037,6.001 5.356,6.206 5.67,6.419 5.988,6.604 6.29,6.776 6.586,6.958 6.884,7.099 7.152,7.24 8.235,7.784 9.015,8.014 9.015,8.014 9.015,8.014 8.849,7.9 8.558,7.701 8.27,7.501 7.861,7.217 7.369,6.876 7.126,6.702 6.865,6.514 6.587,6.314 6.312,6.114 6.026,5.898 5.73,5.674 5.429,5.459 5.141,5.208 4.833,4.972 4.524,4.737 4.233,4.473 3.931,4.221 3.638,3.96 3.341,3.703 3.061,3.438 2.797,3.158 2.501,2.914 2.257,2.64 2.019,2.363 1.752,2.121 1.545,1.857 1.338,1.592 1.118,1.357 0.943,1.121 0.775,0.879 0.613,0.661 0.469,0.466 0.326,0.271 0.23,0.083 0.133,-0.062 c -0.185,-0.297 -0.299,-0.467 -0.299,-0.467 0,0 0.056,0.192 0.166,0.529 m 4.648,0.913 c 0,0 6.266,-0.02 4.724,2.078 0,0 1.601,0.468 0.632,1.402 0,0 -0.341,0.832 -1.402,0.853 1.702,0.456 4.222,1.301 2.653,2.004 0,0 4.046,5.184 -2.514,2.452 0,0 -0.335,3.32 -4.204,-0.883 0,0 -2.068,2.118 -2.903,-2.356 0,0 -2.747,-0.515 -1.137,-3.637 0,0 -2.827,-1.233 -0.824,-3.717 0,0 6.719,-0.583 4.975,1.804" />
      </g>
      <g
         style="fill:#982439;fill-opacity:1"
         transform="translate(301.4946,588.7617)"
         id="g6406">
        <path
           inkscape:connector-curvature="0"
           id="path6408"
           style="fill:#982439;fill-opacity:1;fill-rule:nonzero;stroke:none"
           d="M 0,0 C -0.008,0.176 -0.045,0.396 -0.032,0.642 -0.02,0.889 -0.006,1.168 0.017,1.475 0.042,1.78 0.11,2.104 0.17,2.451 0.227,2.799 0.342,3.15 0.443,3.52 c 0.106,0.369 0.248,0.737 0.391,1.113 0.154,0.37 0.324,0.74 0.493,1.11 0.197,0.356 0.376,0.721 0.582,1.063 0.202,0.345 0.412,0.677 0.628,0.99 0.206,0.319 0.428,0.61 0.639,0.887 0.204,0.281 0.423,0.527 0.616,0.76 0.789,0.922 1.418,1.435 1.418,1.435 0,0 -0.109,-0.17 -0.3,-0.465 C 4.723,10.118 4.455,9.698 4.132,9.193 3.978,8.938 3.809,8.664 3.63,8.373 3.453,8.082 3.272,7.771 3.087,7.451 2.893,7.135 2.724,6.792 2.531,6.456 2.337,6.12 2.173,5.764 1.99,5.415 1.822,5.061 1.647,4.708 1.492,4.355 1.356,3.995 1.178,3.656 1.059,3.309 0.946,2.961 0.794,2.635 0.706,2.311 0.617,1.987 0.503,1.686 0.434,1.399 0.374,1.112 0.308,0.848 0.25,0.611 0.194,0.376 0.179,0.167 0.147,-0.005 0.09,-0.35 0.051,-0.551 0.051,-0.551 0.051,-0.551 0.027,-0.354 0,0 m 3.932,2.642 c 0,0 5.785,2.404 3.552,3.743 0,0 1.295,1.051 0.041,1.537 0,0 -0.638,0.636 -1.626,0.245 1.395,1.078 3.391,2.833 1.673,2.874 0,0 1.725,6.344 -3.266,1.288 0,0 -1.595,2.932 -3.536,-2.441 0,0 -2.727,1.153 -1.766,-3.295 0,0 -2.334,-1.538 0.359,-3.794 0,0 -2.129,-2.23 0.679,-3.747 0,0 6.42,2.062 3.89,3.59" />
      </g>
      <g
         style="fill:#982439;fill-opacity:1"
         transform="translate(295,601.2358)"
         id="g6410">
        <path
           inkscape:connector-curvature="0"
           id="path6412"
           style="fill:#982439;fill-opacity:1;fill-rule:nonzero;stroke:none"
           d="M 0,0 C 0,0 -0.12,0.166 -0.316,0.455 -0.417,0.599 -0.521,0.781 -0.67,0.972 -0.822,1.16 -0.992,1.373 -1.169,1.607 -1.353,1.837 -1.583,2.063 -1.8,2.32 -2.016,2.577 -2.291,2.808 -2.54,3.076 -2.794,3.34 -3.099,3.573 -3.374,3.843 c -0.289,0.254 -0.596,0.501 -0.898,0.75 -0.312,0.24 -0.613,0.493 -0.93,0.717 -0.316,0.223 -0.614,0.464 -0.923,0.668 -0.303,0.212 -0.598,0.418 -0.881,0.606 -0.285,0.189 -0.553,0.368 -0.801,0.533 -0.505,0.322 -0.925,0.591 -1.22,0.779 -0.298,0.188 -0.469,0.295 -0.469,0.295 0,0 0.788,-0.2 1.892,-0.703 0.273,-0.131 0.575,-0.26 0.878,-0.431 C -6.417,6.896 -6.093,6.725 -5.771,6.522 -5.445,6.33 -5.113,6.118 -4.785,5.89 -4.455,5.666 -4.137,5.411 -3.81,5.17 -3.5,4.906 -3.189,4.643 -2.894,4.372 -2.606,4.091 -2.322,3.817 -2.07,3.527 -1.823,3.234 -1.571,2.964 -1.373,2.672 -1.172,2.383 -0.975,2.118 -0.822,1.852 -0.672,1.584 -0.542,1.335 -0.427,1.117 -0.31,0.899 -0.252,0.685 -0.185,0.522 -0.062,0.189 0,0 0,0 m 0.176,-0.356 c 1.907,2.559 -0.964,3.685 -0.964,3.685 1.491,3.18 -1.273,3.59 -1.273,3.59 -1.002,4.44 -2.99,2.246 -2.99,2.246 -4.024,4.055 -4.234,0.724 -4.234,0.724 -6.659,2.481 -2.419,-2.545 -2.419,-2.545 -1.542,-0.761 1.008,-1.512 2.726,-1.903 -1.06,-0.061 -1.37,-0.905 -1.37,-0.905 -0.933,-0.97 0.685,-1.377 0.685,-1.377 -1.461,-2.156 4.798,-1.899 4.798,-1.899 -1.651,-2.451 5.041,-1.616 5.041,-1.616" />
      </g>
      <g
         style="fill:#982439;fill-opacity:1"
         transform="translate(298.6548,592.1206)"
         id="g6414">
        <path
           inkscape:connector-curvature="0"
           id="path6416"
           style="fill:#982439;fill-opacity:1;fill-rule:nonzero;stroke:none"
           d="M 0,0 C 0,0 -0.167,0.118 -0.445,0.33 -0.587,0.432 -0.743,0.573 -0.946,0.705 -1.151,0.835 -1.38,0.982 -1.623,1.147 -1.87,1.306 -2.16,1.447 -2.448,1.621 -2.735,1.794 -3.07,1.925 -3.392,2.099 -3.718,2.269 -4.08,2.391 -4.427,2.559 -4.783,2.707 -5.151,2.842 -5.518,2.981 -5.891,3.107 -6.257,3.251 -6.629,3.362 -7,3.473 -7.36,3.604 -7.718,3.699 c -0.355,0.104 -0.7,0.204 -1.029,0.293 -0.33,0.087 -0.641,0.17 -0.929,0.247 -0.581,0.144 -1.066,0.263 -1.405,0.346 -0.343,0.082 -0.539,0.13 -0.539,0.13 0,0 0.811,0.062 2.018,-0.06 0.299,-0.036 0.628,-0.063 0.969,-0.126 0.344,-0.053 0.707,-0.112 1.075,-0.2 C -7.186,4.25 -6.804,4.155 -6.42,4.045 -6.035,3.939 -5.653,3.798 -5.266,3.676 -4.887,3.525 -4.509,3.375 -4.142,3.214 -3.78,3.039 -3.423,2.871 -3.091,2.677 -2.763,2.479 -2.438,2.304 -2.157,2.091 -1.874,1.881 -1.602,1.693 -1.373,1.49 -1.144,1.285 -0.941,1.091 -0.762,0.92 -0.583,0.751 -0.458,0.568 -0.343,0.436 -0.119,0.159 0,0 0,0 M 0.281,-0.281 C 1.268,2.754 -1.812,2.9 -1.812,2.9 -1.419,6.39 -4.17,5.893 -4.17,5.893 c -2.372,3.884 -3.551,1.17 -3.551,1.17 -5.113,2.55 -4.243,-0.673 -4.243,-0.673 -7.103,0.218 -1.476,-3.185 -1.476,-3.185 -1.217,-1.215 1.439,-1.109 3.192,-0.929 -0.985,-0.398 -1.008,-1.297 -1.008,-1.297 -0.573,-1.217 1.09,-1.085 1.09,-1.085 -0.693,-2.51 5.154,-0.26 5.154,-0.26 -0.778,-2.851 5.293,0.085 5.293,0.085" />
      </g>
      <g
         style="fill:#982439;fill-opacity:1"
         transform="translate(310.4395,578.9219)"
         id="g6418">
        <path
           inkscape:connector-curvature="0"
           id="path6420"
           style="fill:none;fill-opacity:1;stroke:#982439;stroke-width:0.82200003;stroke-linecap:butt;stroke-linejoin:miter;stroke-miterlimit:10;stroke-dasharray:none;stroke-opacity:1"
           d="M 0,0 C 0,0 -18,11.11 -15.494,37.005" />
      </g>
      <g
         style="fill:#982439;fill-opacity:1"
         transform="translate(141.8916,479.6074)"
         id="g6422">
        <path
           inkscape:connector-curvature="0"
           id="path6424"
           style="fill:#982439;fill-opacity:1;fill-rule:nonzero;stroke:none"
           d="m 0,0 c 0,0 -0.354,0.136 -0.952,0.386 -0.301,0.118 -0.646,0.298 -1.071,0.44 -0.427,0.14 -0.906,0.296 -1.417,0.481 -0.518,0.17 -1.104,0.288 -1.699,0.466 -0.594,0.179 -1.257,0.258 -1.913,0.421 -0.662,0.153 -1.369,0.205 -2.068,0.344 -0.708,0.101 -1.431,0.173 -2.152,0.253 -0.727,0.055 -1.449,0.144 -2.166,0.169 -0.717,0.026 -1.423,0.096 -2.108,0.1 -0.685,0.021 -1.349,0.043 -1.979,0.047 -0.633,0.005 -1.23,0.01 -1.781,0.015 C -20.415,3.11 -21.338,3.1 -21.985,3.094 -22.637,3.082 -23.01,3.076 -23.01,3.076 c 0,0 1.424,0.487 3.643,0.826 0.554,0.074 1.157,0.179 1.797,0.223 0.641,0.062 1.318,0.126 2.02,0.138 0.702,0.032 1.43,0.038 2.17,0.017 0.738,-0.011 1.488,-0.086 2.24,-0.126 0.747,-0.096 1.495,-0.19 2.227,-0.31 C -8.184,3.7 -7.464,3.563 -6.782,3.37 -6.102,3.166 -5.437,3.002 -4.835,2.75 -4.231,2.507 -3.656,2.295 -3.15,2.037 -2.646,1.775 -2.193,1.521 -1.794,1.298 -1.393,1.079 -1.086,0.807 -0.817,0.623 -0.288,0.232 0,0 0,0 m 0.632,-0.372 c 0.365,5.896 -5.224,4.733 -5.224,4.733 -0.911,6.437 -5.611,4.274 -5.611,4.274 -6.049,5.865 -6.906,0.451 -6.906,0.451 -10.343,2.208 -7.295,-3.166 -7.295,-3.166 -12.83,-2.897 -1.171,-6.394 -1.171,-6.394 -1.617,-2.74 3.093,-1.323 6.153,-0.186 -1.583,-1.17 -1.207,-2.792 -1.207,-2.792 -0.464,-2.446 2.456,-1.44 2.456,-1.44 -0.082,-4.82 9.358,1.917 9.358,1.917 -0.076,-5.47 9.447,2.603 9.447,2.603" />
      </g>
      <g
         style="fill:#982439;fill-opacity:1"
         transform="translate(161.9062,476.5215)"
         id="g6426">
        <path
           inkscape:connector-curvature="0"
           id="path6428"
           style="fill:#982439;fill-opacity:1;fill-rule:nonzero;stroke:none"
           d="m 0,0 c 0,0 -0.321,-0.202 -0.878,-0.531 -0.276,-0.171 -0.627,-0.339 -0.995,-0.594 -0.368,-0.259 -0.78,-0.549 -1.233,-0.847 -0.447,-0.313 -0.893,-0.711 -1.392,-1.08 -0.5,-0.37 -0.959,-0.852 -1.483,-1.281 -0.519,-0.438 -0.984,-0.973 -1.514,-1.449 -0.504,-0.506 -0.996,-1.043 -1.491,-1.572 -0.48,-0.55 -0.984,-1.074 -1.434,-1.633 -0.45,-0.559 -0.929,-1.082 -1.342,-1.629 -0.428,-0.535 -0.842,-1.054 -1.224,-1.556 -0.383,-0.503 -0.744,-0.979 -1.078,-1.418 -0.655,-0.894 -1.2,-1.639 -1.582,-2.161 -0.382,-0.529 -0.601,-0.831 -0.601,-0.831 0,0 0.463,1.432 1.522,3.412 0.273,0.487 0.549,1.033 0.898,1.572 0.333,0.55 0.689,1.13 1.099,1.699 0.395,0.583 0.826,1.169 1.286,1.749 0.452,0.585 0.961,1.14 1.442,1.717 0.526,0.541 1.048,1.084 1.583,1.6 0.553,0.497 1.092,0.99 1.657,1.421 0.57,0.422 1.099,0.856 1.662,1.188 0.556,0.338 1.07,0.672 1.58,0.922 0.512,0.246 0.986,0.457 1.404,0.643 0.417,0.19 0.818,0.272 1.127,0.378 C -0.358,-0.092 0,0 0,0 m 0.677,0.283 c -4.503,3.824 -6.919,-1.348 -6.919,-1.348 -5.7,3.128 -6.784,-1.932 -6.784,-1.932 -8.319,-1.332 -4.498,-5.26 -4.498,-5.26 -7.963,-6.96 -1.833,-7.738 -1.833,-7.738 -5.367,-12.009 4.417,-4.768 4.417,-4.768 1.226,-2.937 2.911,1.685 3.835,4.815 -0.012,-1.967 1.512,-2.639 1.512,-2.639 1.681,-1.836 2.625,1.105 2.625,1.105 3.81,-2.953 4.07,8.642 4.07,8.642 4.335,-3.338 3.575,9.123 3.575,9.123" />
      </g>
      <g
         style="fill:#982439;fill-opacity:1"
         transform="translate(185.4404,465.6851)"
         id="g6430">
        <path
           inkscape:connector-curvature="0"
           id="path6432"
           style="fill:#982439;fill-opacity:1;fill-rule:nonzero;stroke:none"
           d="m 0,0 c 0,0 -0.374,-0.062 -1.015,-0.15 -0.32,-0.051 -0.709,-0.07 -1.147,-0.163 -0.439,-0.097 -0.931,-0.204 -1.466,-0.304 -0.533,-0.115 -1.097,-0.31 -1.7,-0.458 -0.604,-0.148 -1.214,-0.414 -1.863,-0.607 -0.648,-0.203 -1.284,-0.516 -1.957,-0.75 -0.66,-0.271 -1.322,-0.577 -1.984,-0.872 -0.654,-0.321 -1.321,-0.611 -1.953,-0.952 -0.631,-0.341 -1.275,-0.638 -1.867,-0.982 -0.603,-0.328 -1.186,-0.647 -1.731,-0.962 -0.548,-0.316 -1.066,-0.614 -1.544,-0.889 -0.949,-0.572 -1.74,-1.049 -2.295,-1.382 -0.555,-0.34 -0.874,-0.534 -0.874,-0.534 0,0 0.98,1.142 2.722,2.558 0.441,0.344 0.906,0.739 1.437,1.102 0.521,0.378 1.072,0.776 1.671,1.142 0.589,0.384 1.214,0.757 1.862,1.115 0.642,0.364 1.327,0.679 1.996,1.025 0.693,0.295 1.384,0.594 2.077,0.862 0.702,0.245 1.391,0.491 2.078,0.67 0.689,0.169 1.344,0.364 1.991,0.453 0.645,0.095 1.248,0.204 1.814,0.238 0.568,0.029 1.087,0.04 1.544,0.05 0.458,0.014 0.86,-0.065 1.185,-0.087 C -0.365,0.053 0,0 0,0 m 0.734,-0.001 c -2.672,5.269 -6.901,1.434 -6.901,1.434 -4.047,5.089 -7.004,0.843 -7.004,0.843 -8.185,1.992 -6.182,-3.11 -6.182,-3.11 -10.037,-3.337 -4.685,-6.425 -4.685,-6.425 -9.595,-8.998 2.228,-6.107 2.228,-6.107 -0.005,-3.181 3.337,0.428 5.399,2.957 -0.772,-1.809 0.374,-3.018 0.374,-3.018 0.84,-2.344 2.848,0.002 2.848,0.002 2.371,-4.197 7.096,6.395 7.096,6.395 2.707,-4.755 6.827,7.029 6.827,7.029" />
      </g>
      <g
         style="fill:#982439;fill-opacity:1"
         transform="translate(160.4629,478.9639)"
         id="g6434">
        <path
           inkscape:connector-curvature="0"
           id="path6436"
           style="fill:#982439;fill-opacity:1;fill-rule:nonzero;stroke:none"
           d="m 0,0 c -0.298,0.132 -0.69,0.25 -1.088,0.477 -0.4,0.222 -0.854,0.474 -1.342,0.765 -0.485,0.294 -0.967,0.673 -1.491,1.059 -0.532,0.381 -1.019,0.86 -1.55,1.331 -0.524,0.479 -1.017,1.018 -1.524,1.564 -0.486,0.56 -0.959,1.147 -1.433,1.733 -0.429,0.617 -0.887,1.217 -1.285,1.839 -0.406,0.618 -0.784,1.241 -1.125,1.855 -0.359,0.604 -0.66,1.213 -0.944,1.791 -0.3,0.569 -0.526,1.135 -0.754,1.647 -0.879,2.065 -1.213,3.533 -1.213,3.533 0,0 0.191,-0.321 0.524,-0.881 0.335,-0.554 0.811,-1.345 1.384,-2.295 0.295,-0.466 0.612,-0.972 0.948,-1.507 0.334,-0.533 0.703,-1.088 1.081,-1.66 0.362,-0.581 0.793,-1.144 1.192,-1.74 0.398,-0.597 0.853,-1.165 1.282,-1.755 0.446,-0.571 0.889,-1.15 1.346,-1.698 C -5.506,5.537 -5.091,4.962 -4.613,4.479 -4.129,4.006 -3.715,3.485 -3.25,3.073 -2.785,2.66 -2.377,2.224 -1.96,1.872 -1.535,1.535 -1.15,1.21 -0.807,0.92 -0.462,0.632 -0.129,0.434 0.131,0.238 0.657,-0.138 0.959,-0.369 0.959,-0.369 0.959,-0.369 0.611,-0.244 0,0 m -1.143,8.695 c 0,0 0.774,11.572 -3.284,8.97 0,0 -0.678,3.013 -2.516,1.334 0,0 -1.578,-0.534 -1.742,-2.494 -0.64,3.2 -1.908,7.953 -3.391,5.137 0,0 -9.1,8.083 -4.824,-4.357 0,0 -6.175,-0.228 1.139,-7.87 0,0 -4.156,-3.573 4.012,-5.639 0,0 0.629,-5.135 6.584,-2.529 0,0 1.948,-5.366 6.773,-1.957 0,0 1.865,12.344 -2.751,9.405" />
      </g>
      <g
         style="fill:#982439;fill-opacity:1"
         transform="translate(178.771,472.7769)"
         id="g6438">
        <path
           inkscape:connector-curvature="0"
           id="path6440"
           style="fill:#982439;fill-opacity:1;fill-rule:nonzero;stroke:none"
           d="m 0,0 c -0.24,0.221 -0.574,0.458 -0.878,0.801 -0.308,0.338 -0.656,0.722 -1.025,1.155 -0.365,0.434 -0.701,0.947 -1.074,1.481 -0.381,0.53 -0.69,1.14 -1.041,1.758 -0.343,0.621 -0.638,1.29 -0.942,1.969 -0.282,0.687 -0.541,1.394 -0.803,2.101 -0.209,0.722 -0.45,1.437 -0.628,2.154 -0.186,0.715 -0.344,1.427 -0.471,2.118 -0.145,0.687 -0.236,1.36 -0.32,1.999 -0.101,0.634 -0.133,1.244 -0.187,1.8 -0.17,2.239 -0.015,3.736 -0.015,3.736 0,0 0.078,-0.364 0.214,-1.002 0.139,-0.632 0.337,-1.534 0.575,-2.616 0.129,-0.537 0.267,-1.118 0.415,-1.732 0.146,-0.613 0.316,-1.256 0.492,-1.919 0.157,-0.666 0.385,-1.338 0.571,-2.031 0.186,-0.693 0.435,-1.376 0.652,-2.072 0.24,-0.685 0.473,-1.374 0.731,-2.041 0.292,-0.649 0.502,-1.326 0.8,-1.937 0.307,-0.603 0.533,-1.23 0.84,-1.769 0.308,-0.54 0.555,-1.084 0.838,-1.551 C -0.962,1.946 -0.701,1.515 -0.469,1.129 -0.236,0.748 0.018,0.452 0.2,0.185 0.578,-0.341 0.791,-0.656 0.791,-0.656 0.791,-0.656 0.5,-0.427 0,0 m 1.705,8.603 c 0,0 4.441,10.713 -0.237,9.549 0,0 0.324,3.072 -1.956,2.07 0,0 -1.665,0 -2.449,-1.804 0.419,3.236 0.742,8.145 -1.565,5.953 0,0 -6.031,10.573 -5.967,-2.58 0,0 -5.922,1.762 -1.444,-7.821 0,0 -5.081,-2.053 1.995,-6.628 0,0 -1.051,-5.066 5.426,-4.505 0,0 0.124,-5.707 5.787,-4.024 0,0 5.723,11.095 0.41,9.79" />
      </g>
      <g
         style="fill:#982439;fill-opacity:1"
         transform="translate(203.457,449.1313)"
         id="g6442">
        <path
           inkscape:connector-curvature="0"
           id="path6444"
           style="fill:none;fill-opacity:1;stroke:#982439;stroke-width:1.523;stroke-linecap:butt;stroke-linejoin:miter;stroke-miterlimit:10;stroke-dasharray:none;stroke-opacity:1"
           d="M 0,0 C 0,0 -19.705,33.839 -67.746,30.433" />
      </g>
      <g
         style="fill:#982439;fill-opacity:1"
         transform="translate(122.8833,533.0425)"
         id="g6446">
        <path
           inkscape:connector-curvature="0"
           id="path6448"
           style="fill:#982439;fill-opacity:1;fill-rule:nonzero;stroke:none"
           d="M 0,0 C 0,0 -0.226,0.224 -0.598,0.618 -0.79,0.81 -0.993,1.065 -1.27,1.318 -1.55,1.569 -1.864,1.852 -2.193,2.166 -2.532,2.471 -2.94,2.76 -3.336,3.098 -3.731,3.436 -4.211,3.721 -4.658,4.068 -5.114,4.41 -5.638,4.689 -6.125,5.033 -6.634,5.35 -7.164,5.65 -7.688,5.955 -8.227,6.243 -8.75,6.556 -9.291,6.818 c -0.54,0.263 -1.056,0.555 -1.581,0.789 -0.516,0.249 -1.018,0.491 -1.499,0.707 -0.483,0.219 -0.939,0.425 -1.359,0.615 -0.853,0.366 -1.563,0.671 -2.062,0.886 -0.502,0.211 -0.791,0.333 -0.791,0.333 0,0 1.256,-0.109 3.071,-0.601 0.449,-0.131 0.946,-0.255 1.452,-0.438 0.512,-0.17 1.052,-0.35 1.593,-0.577 0.55,-0.214 1.109,-0.456 1.668,-0.722 0.562,-0.26 1.111,-0.571 1.673,-0.856 0.54,-0.327 1.081,-0.652 1.601,-0.992 0.51,-0.357 1.015,-0.705 1.472,-1.085 0.451,-0.386 0.905,-0.736 1.281,-1.133 0.38,-0.39 0.749,-0.748 1.049,-1.117 0.298,-0.372 0.558,-0.719 0.788,-1.025 0.233,-0.304 0.376,-0.616 0.52,-0.849 C -0.143,0.275 0,0 0,0 m 0.358,-0.499 c 2.276,4.392 -2.399,5.393 -2.399,5.393 1.482,5.239 -2.85,5.175 -2.85,5.175 -2.646,6.54 -5.136,2.684 -5.136,2.684 -7.175,5.194 -6.66,0.046 -6.66,0.046 -10.808,2.126 -3.062,-4.501 -3.062,-4.501 -2.167,-1.551 1.921,-2.06 4.649,-2.226 -1.608,-0.36 -1.869,-1.73 -1.869,-1.73 -1.184,-1.717 1.394,-1.935 1.394,-1.935 -1.696,-3.663 7.815,-1.699 7.815,-1.699 -1.909,-4.165 8.118,-1.207 8.118,-1.207" />
      </g>
      <g
         style="fill:#982439;fill-opacity:1"
         transform="translate(134.8091,526.1113)"
         id="g6450">
        <path
           inkscape:connector-curvature="0"
           id="path6452"
           style="fill:#982439;fill-opacity:1;fill-rule:nonzero;stroke:none"
           d="m 0,0 c 0,0 -0.314,-0.046 -0.852,-0.109 -0.269,-0.038 -0.595,-0.049 -0.963,-0.119 -0.37,-0.073 -0.783,-0.156 -1.232,-0.231 -0.448,-0.088 -0.924,-0.242 -1.431,-0.356 -0.508,-0.114 -1.023,-0.328 -1.57,-0.478 -0.546,-0.16 -1.083,-0.413 -1.65,-0.598 -0.557,-0.216 -1.116,-0.462 -1.675,-0.699 -0.553,-0.258 -1.116,-0.489 -1.65,-0.765 -0.535,-0.276 -1.079,-0.514 -1.58,-0.793 -0.51,-0.265 -1.002,-0.523 -1.464,-0.776 -0.465,-0.257 -0.902,-0.498 -1.307,-0.722 -0.804,-0.463 -1.474,-0.85 -1.943,-1.12 -0.472,-0.275 -0.742,-0.433 -0.742,-0.433 0,0 0.84,0.94 2.321,2.097 0.374,0.282 0.77,0.606 1.22,0.901 0.442,0.308 0.911,0.632 1.418,0.93 0.499,0.312 1.028,0.614 1.576,0.903 0.545,0.296 1.122,0.548 1.688,0.827 0.586,0.237 1.169,0.475 1.753,0.688 0.592,0.194 1.172,0.39 1.75,0.528 0.581,0.131 1.132,0.284 1.675,0.347 0.541,0.071 1.048,0.153 1.524,0.171 0.474,0.015 0.91,0.016 1.293,0.018 0.383,0.004 0.718,-0.069 0.99,-0.092 C -0.306,0.05 0,0 0,0 m 0.615,-0.013 c -2.154,4.454 -5.757,1.31 -5.757,1.31 -3.305,4.327 -5.849,0.818 -5.849,0.818 -6.823,1.798 -5.226,-2.504 -5.226,-2.504 -8.457,-2.635 -4.025,-5.306 -4.025,-5.306 -8.178,-7.381 1.768,-5.149 1.768,-5.149 -0.056,-2.664 2.801,0.305 4.568,2.389 -0.675,-1.502 0.264,-2.532 0.264,-2.532 0.666,-1.976 2.385,-0.043 2.385,-0.043 1.918,-3.553 6.044,5.241 6.044,5.241 2.189,-4.025 5.828,5.776 5.828,5.776" />
      </g>
      <g
         style="fill:#982439;fill-opacity:1"
         transform="translate(151.458,508.5083)"
         id="g6454">
        <path
           inkscape:connector-curvature="0"
           id="path6456"
           style="fill:#982439;fill-opacity:1;fill-rule:nonzero;stroke:none"
           d="m 0,0 c 0,0 -0.308,0.079 -0.829,0.229 -0.262,0.069 -0.567,0.186 -0.933,0.264 -0.369,0.074 -0.782,0.158 -1.226,0.264 -0.447,0.092 -0.946,0.133 -1.457,0.224 -0.513,0.091 -1.07,0.094 -1.632,0.166 -0.566,0.064 -1.159,0.04 -1.754,0.089 -0.597,0.015 -1.207,0.005 -1.815,0.004 -0.61,-0.025 -1.218,-0.021 -1.818,-0.068 -0.599,-0.048 -1.192,-0.057 -1.762,-0.121 -0.573,-0.046 -1.127,-0.093 -1.652,-0.149 -0.527,-0.057 -1.023,-0.111 -1.483,-0.159 -0.921,-0.117 -1.688,-0.214 -2.226,-0.281 -0.54,-0.072 -0.85,-0.113 -0.85,-0.113 0,0 1.137,0.542 2.951,1.037 0.454,0.115 0.944,0.26 1.473,0.358 0.528,0.113 1.084,0.231 1.667,0.308 0.582,0.095 1.187,0.169 1.804,0.223 0.616,0.061 1.246,0.072 1.875,0.11 0.631,-0.008 1.263,-0.014 1.884,-0.044 0.62,-0.05 1.231,-0.094 1.818,-0.19 C -5.38,2.047 -4.812,1.975 -4.286,1.823 -3.76,1.678 -3.261,1.558 -2.817,1.392 -2.372,1.221 -1.971,1.055 -1.617,0.907 -1.263,0.762 -0.981,0.566 -0.739,0.439 -0.262,0.165 0,0 0,0 m 0.562,-0.25 c -0.263,4.94 -4.801,3.436 -4.801,3.436 -1.376,5.268 -5.078,3.018 -5.078,3.018 -5.595,4.297 -5.788,-0.288 -5.788,-0.288 -8.817,0.843 -5.765,-3.335 -5.765,-3.335 -10.396,-3.643 -0.361,-5.432 -0.361,-5.432 -1.081,-2.435 2.7,-0.803 5.137,0.436 -1.204,-1.124 -0.736,-2.439 -0.736,-2.439 -0.15,-2.079 2.182,-0.961 2.182,-0.961 0.394,-4.018 7.6,2.494 7.6,2.494 0.463,-4.559 7.61,3.071 7.61,3.071" />
      </g>
      <g
         style="fill:#982439;fill-opacity:1"
         transform="translate(138.9351,525.3271)"
         id="g6458">
        <path
           inkscape:connector-curvature="0"
           id="path6460"
           style="fill:#982439;fill-opacity:1;fill-rule:nonzero;stroke:none"
           d="m 0,0 c -0.184,0.202 -0.444,0.425 -0.672,0.733 -0.231,0.306 -0.493,0.653 -0.768,1.041 -0.272,0.39 -0.513,0.843 -0.784,1.316 -0.278,0.472 -0.49,1.003 -0.736,1.545 -0.239,0.544 -0.435,1.124 -0.638,1.714 -0.183,0.593 -0.346,1.203 -0.51,1.812 -0.121,0.618 -0.268,1.233 -0.363,1.843 -0.101,0.612 -0.179,1.217 -0.233,1.803 -0.069,0.585 -0.095,1.152 -0.116,1.691 -0.037,0.538 -0.018,1.048 -0.02,1.517 0.027,1.88 0.268,3.116 0.268,3.116 0,0 0.037,-0.31 0.103,-0.851 0.069,-0.539 0.165,-1.306 0.282,-2.227 0.068,-0.457 0.14,-0.951 0.216,-1.475 0.076,-0.521 0.17,-1.071 0.265,-1.637 0.081,-0.568 0.221,-1.145 0.325,-1.737 0.102,-0.592 0.259,-1.182 0.387,-1.778 0.149,-0.589 0.291,-1.182 0.456,-1.757 0.196,-0.563 0.319,-1.144 0.521,-1.676 0.211,-0.526 0.352,-1.066 0.568,-1.538 0.217,-0.474 0.381,-0.947 0.581,-1.357 0.212,-0.403 0.396,-0.783 0.561,-1.12 0.167,-0.337 0.355,-0.602 0.488,-0.84 0.275,-0.466 0.428,-0.744 0.428,-0.744 0,0 -0.224,0.212 -0.609,0.606 m 2.069,7.047 c 0,0 4.511,8.6 0.523,7.982 0,0 0.5,2.537 -1.476,1.873 0,0 -1.389,0.126 -2.178,-1.319 0.593,2.667 1.231,6.737 -0.858,5.082 0,0 -4.233,9.273 -5.17,-1.703 0,0 -4.807,1.916 -1.794,-6.414 0,0 -4.392,-1.329 1.164,-5.677 0,0 -1.258,-4.146 4.186,-4.166 0,0 -0.325,-4.769 4.525,-3.793 0,0 5.608,8.822 1.078,8.135" />
      </g>
      <g
         style="fill:#982439;fill-opacity:1"
         transform="translate(148.6235,514.7109)"
         id="g6462">
        <path
           inkscape:connector-curvature="0"
           id="path6464"
           style="fill:#982439;fill-opacity:1;fill-rule:nonzero;stroke:none"
           d="m 0,0 c -0.109,0.25 -0.284,0.545 -0.401,0.91 -0.121,0.364 -0.257,0.776 -0.394,1.232 -0.133,0.457 -0.215,0.963 -0.322,1.498 -0.112,0.536 -0.141,1.108 -0.202,1.699 -0.051,0.592 -0.05,1.205 -0.055,1.828 0.018,0.62 0.059,1.25 0.097,1.88 0.086,0.624 0.143,1.253 0.25,1.863 0.099,0.611 0.219,1.209 0.356,1.782 0.121,0.575 0.279,1.121 0.432,1.639 0.137,0.52 0.319,0.998 0.467,1.443 0.628,1.771 1.253,2.866 1.253,2.866 0,0 -0.064,-0.306 -0.176,-0.841 C 1.198,17.269 1.043,16.51 0.859,15.601 0.776,15.147 0.686,14.655 0.59,14.134 0.495,13.615 0.408,13.065 0.317,12.498 0.213,11.935 0.159,11.342 0.067,10.749 -0.024,10.155 -0.065,9.547 -0.135,8.94 -0.183,8.335 -0.237,7.729 -0.267,7.13 -0.262,6.534 -0.331,5.944 -0.31,5.376 -0.279,4.811 -0.318,4.253 -0.265,3.736 -0.212,3.219 -0.207,2.718 -0.149,2.265 -0.078,1.815 -0.024,1.397 0.023,1.024 0.072,0.652 0.167,0.341 0.216,0.073 0.327,-0.457 0.383,-0.77 0.383,-0.77 0.383,-0.77 0.239,-0.497 0,0 m 4.219,6.011 c 0,0 7.03,6.701 3.053,7.394 0,0 1.288,2.243 -0.797,2.248 0,0 -1.276,0.564 -2.487,-0.552 1.417,2.336 3.326,5.987 0.817,5.089 0,0 -1.038,10.14 -5.444,0.044 0,0 -3.938,3.356 -3.755,-5.5 0,0 -4.585,0.148 -0.716,-5.752 0,0 -2.52,-3.524 2.631,-5.288 0,0 -1.839,-4.413 3.069,-5.042 0,0 8.14,6.559 3.629,7.359" />
      </g>
      <g
         style="fill:#982439;fill-opacity:1"
         transform="translate(159.3008,489.2676)"
         id="g6466">
        <path
           inkscape:connector-curvature="0"
           id="path6468"
           style="fill:none;fill-opacity:1;stroke:#982439;stroke-width:1.27499998;stroke-linecap:butt;stroke-linejoin:miter;stroke-miterlimit:10;stroke-dasharray:none;stroke-opacity:1"
           d="M 0,0 C 0,0 -3.632,32.591 -41.58,46.251" />
      </g>
      <g
         style="fill:#982439;fill-opacity:1"
         transform="translate(132.6597,584.3403)"
         id="g6470">
        <path
           inkscape:connector-curvature="0"
           id="path6472"
           style="fill:#982439;fill-opacity:1;fill-rule:nonzero;stroke:none"
           d="m 0,0 c 0,0 -0.051,0.256 -0.125,0.694 -0.043,0.219 -0.064,0.484 -0.138,0.784 -0.076,0.298 -0.16,0.633 -0.241,0.998 -0.093,0.363 -0.238,0.745 -0.353,1.156 -0.115,0.411 -0.311,0.824 -0.458,1.265 -0.154,0.44 -0.383,0.87 -0.559,1.326 -0.201,0.447 -0.425,0.894 -0.643,1.341 -0.235,0.442 -0.448,0.894 -0.697,1.319 -0.247,0.425 -0.466,0.861 -0.716,1.259 -0.238,0.406 -0.47,0.799 -0.698,1.166 -0.229,0.369 -0.446,0.717 -0.645,1.038 -0.414,0.639 -0.758,1.172 -0.999,1.545 -0.246,0.374 -0.387,0.588 -0.387,0.588 0,0 0.805,-0.647 1.816,-1.811 0.246,-0.294 0.528,-0.605 0.789,-0.96 0.271,-0.35 0.556,-0.719 0.822,-1.121 0.276,-0.396 0.546,-0.816 0.806,-1.253 C -2.162,8.901 -1.931,8.439 -1.678,7.988 -1.46,7.519 -1.24,7.05 -1.041,6.582 -0.856,6.105 -0.671,5.638 -0.534,5.17 -0.403,4.702 -0.253,4.257 -0.179,3.814 -0.098,3.375 -0.01,2.964 0.026,2.576 0.059,2.187 0.077,1.832 0.095,1.518 0.115,1.204 0.07,0.926 0.061,0.702 0.028,0.252 0,0 0,0 m 0.016,-0.503 c 3.555,1.952 0.829,4.767 0.829,4.767 3.4,2.891 0.421,4.824 0.421,4.824 1.184,5.662 -2.272,4.172 -2.272,4.172 -2.515,6.812 -4.515,3.071 -4.515,3.071 -6.388,6.381 -4.139,-1.666 -4.139,-1.666 -2.183,-0.068 0.368,-2.28 2.15,-3.638 -1.259,0.489 -2.062,-0.325 -2.062,-0.325 -1.59,-0.628 0.066,-1.954 0.066,-1.954 -2.827,-1.72 4.546,-4.725 4.546,-4.725 -3.202,-1.964 4.976,-4.526 4.976,-4.526" />
      </g>
      <g
         style="fill:#982439;fill-opacity:1"
         transform="translate(136.8213,573.5937)"
         id="g6474">
        <path
           inkscape:connector-curvature="0"
           id="path6476"
           style="fill:#982439;fill-opacity:1;fill-rule:nonzero;stroke:none"
           d="m 0,0 c 0,0 -0.235,0.112 -0.63,0.315 -0.201,0.097 -0.428,0.239 -0.711,0.359 -0.284,0.118 -0.603,0.251 -0.944,0.405 -0.344,0.144 -0.738,0.257 -1.136,0.411 -0.398,0.154 -0.846,0.244 -1.287,0.391 -0.445,0.14 -0.926,0.213 -1.397,0.346 -0.478,0.107 -0.971,0.195 -1.459,0.288 -0.495,0.077 -0.984,0.177 -1.474,0.232 -0.489,0.057 -0.968,0.143 -1.437,0.182 -0.468,0.052 -0.921,0.101 -1.352,0.139 -0.433,0.037 -0.84,0.073 -1.218,0.105 -0.76,0.052 -1.391,0.095 -1.834,0.125 -0.448,0.028 -0.703,0.044 -0.703,0.044 0,0 1,0.256 2.537,0.368 0.383,0.021 0.801,0.061 1.242,0.056 0.442,0.008 0.908,0.015 1.39,-0.014 0.481,-0.015 0.98,-0.05 1.485,-0.104 C -8.422,3.601 -7.913,3.509 -7.401,3.441 -6.894,3.335 -6.388,3.23 -5.893,3.11 -5.402,2.971 -4.918,2.84 -4.46,2.669 -4.005,2.494 -3.56,2.346 -3.162,2.142 -2.761,1.943 -2.379,1.767 -2.046,1.563 -1.716,1.356 -1.419,1.158 -1.158,0.985 -0.895,0.812 -0.7,0.61 -0.525,0.47 -0.186,0.174 0,0 0,0 m 0.412,-0.289 c 0.567,4.016 -3.321,3.519 -3.321,3.519 -0.277,4.455 -3.61,3.228 -3.61,3.228 -3.825,4.338 -4.702,0.679 -4.702,0.679 -6.96,2.066 -5.162,-1.775 -5.162,-1.775 -8.937,-1.293 -1.146,-4.313 -1.146,-4.313 -1.254,-1.789 2.047,-1.07 4.201,-0.458 -1.145,-0.715 -0.976,-1.845 -0.976,-1.845 -0.448,-1.649 1.604,-1.118 1.604,-1.118 -0.315,-3.294 6.508,0.81 6.508,0.81 -0.347,-3.74 6.604,1.273 6.604,1.273" />
      </g>
      <g
         style="fill:#982439;fill-opacity:1"
         transform="translate(140.7607,553.894)"
         id="g6478">
        <path
           inkscape:connector-curvature="0"
           id="path6480"
           style="fill:#982439;fill-opacity:1;fill-rule:nonzero;stroke:none"
           d="M 0,0 C 0,0 -0.174,0.194 -0.46,0.534 -0.607,0.701 -0.761,0.919 -0.975,1.14 -1.192,1.359 -1.436,1.605 -1.689,1.878 -1.951,2.145 -2.272,2.401 -2.58,2.696 -2.886,2.993 -3.265,3.25 -3.614,3.555 -3.97,3.856 -4.386,4.11 -4.768,4.416 c -0.399,0.283 -0.82,0.555 -1.234,0.831 -0.427,0.261 -0.839,0.542 -1.269,0.783 -0.43,0.241 -0.838,0.506 -1.255,0.723 -0.411,0.229 -0.81,0.451 -1.193,0.652 -0.385,0.202 -0.748,0.391 -1.082,0.568 -0.681,0.341 -1.247,0.625 -1.644,0.825 -0.401,0.198 -0.631,0.311 -0.631,0.311 0,0 1.022,-0.15 2.483,-0.64 0.362,-0.13 0.761,-0.255 1.167,-0.429 0.411,-0.164 0.843,-0.338 1.275,-0.551 0.44,-0.201 0.885,-0.427 1.33,-0.672 0.447,-0.239 0.882,-0.52 1.327,-0.781 C -5.068,5.743 -4.641,5.451 -4.231,5.147 -3.832,4.829 -3.437,4.521 -3.08,4.187 -2.729,3.85 -2.375,3.542 -2.086,3.198 -1.795,2.859 -1.51,2.549 -1.283,2.233 -1.058,1.914 -0.861,1.618 -0.687,1.356 -0.512,1.095 -0.41,0.833 -0.303,0.636 -0.104,0.231 0,0 0,0 m 0.269,-0.427 c 2.075,3.485 -1.701,4.531 -1.701,4.531 1.468,4.215 -2.081,4.373 -2.081,4.373 -1.848,5.48 -4.072,2.445 -4.072,2.445 -5.619,4.599 -5.448,0.361 -5.448,0.361 -8.741,2.264 -2.725,-3.534 -2.725,-3.534 -1.848,-1.164 1.473,-1.779 3.697,-2.047 -1.333,-0.217 -1.614,-1.326 -1.614,-1.326 -1.052,-1.347 1.046,-1.65 1.046,-1.65 -1.564,-2.915 6.314,-1.77 6.314,-1.77 -1.766,-3.316 6.584,-1.383 6.584,-1.383" />
      </g>
      <g
         style="fill:#982439;fill-opacity:1"
         transform="translate(139.2788,573.061)"
         id="g6482">
        <path
           inkscape:connector-curvature="0"
           id="path6484"
           style="fill:#982439;fill-opacity:1;fill-rule:nonzero;stroke:none"
           d="m 0,0 c -0.033,0.221 -0.108,0.493 -0.123,0.807 -0.017,0.313 -0.038,0.669 -0.048,1.059 -0.007,0.389 0.035,0.807 0.067,1.253 0.026,0.449 0.125,0.907 0.204,1.388 0.085,0.48 0.217,0.964 0.348,1.458 0.146,0.488 0.313,0.978 0.479,1.468 0.2,0.475 0.381,0.961 0.595,1.42 0.21,0.462 0.434,0.91 0.665,1.333 0.218,0.431 0.46,0.829 0.692,1.205 0.22,0.383 0.466,0.722 0.678,1.042 0.877,1.268 1.606,2 1.606,2 0,0 -0.117,-0.228 -0.32,-0.627 C 4.645,13.408 4.361,12.841 4.02,12.161 3.857,11.819 3.681,11.449 3.494,11.058 3.307,10.668 3.12,10.251 2.927,9.822 2.723,9.398 2.555,8.942 2.355,8.492 2.155,8.042 1.992,7.569 1.807,7.104 1.64,6.635 1.466,6.167 1.316,5.7 1.192,5.227 1.011,4.775 0.906,4.32 0.809,3.866 0.659,3.434 0.59,3.014 0.521,2.592 0.418,2.195 0.367,1.825 0.327,1.454 0.279,1.111 0.237,0.807 0.197,0.501 0.205,0.235 0.186,0.012 0.161,-0.431 0.138,-0.691 0.138,-0.691 0.138,-0.691 0.083,-0.443 0,0 m 4.625,3.854 c 0,0 6.998,3.797 4,5.197 0,0 1.499,1.499 -0.15,1.949 0,0 -0.889,0.72 -2.086,0.095 1.621,1.546 3.913,4.026 1.736,3.853 0,0 1.351,8.245 -4.298,1.2 0,0 -2.399,3.498 -4.148,-3.548 0,0 -3.598,1.1 -1.799,-4.397 0,0 -2.75,-2.249 0.949,-4.748 0,0 -2.399,-3.099 1.349,-4.648 0,0 7.845,3.447 4.447,5.047" />
      </g>
      <g
         style="fill:#982439;fill-opacity:1"
         transform="translate(141.458,560.7422)"
         id="g6486">
        <path
           inkscape:connector-curvature="0"
           id="path6488"
           style="fill:#982439;fill-opacity:1;fill-rule:nonzero;stroke:none"
           d="m 0,0 c 0.04,0.22 0.055,0.501 0.142,0.802 0.084,0.304 0.179,0.647 0.295,1.019 0.117,0.372 0.292,0.754 0.464,1.167 0.168,0.416 0.409,0.819 0.638,1.249 0.235,0.427 0.516,0.844 0.796,1.269 0.296,0.415 0.611,0.826 0.925,1.237 0.343,0.386 0.669,0.788 1.02,1.154 0.346,0.372 0.701,0.724 1.056,1.051 0.345,0.336 0.702,0.637 1.042,0.92 0.331,0.291 0.673,0.533 0.976,0.768 1.237,0.92 2.162,1.381 2.162,1.381 0,0 -0.183,-0.18 -0.504,-0.494 C 8.697,11.211 8.246,10.766 7.706,10.23 7.442,9.959 7.156,9.666 6.853,9.354 6.552,9.045 6.241,8.71 5.921,8.365 5.592,8.029 5.285,7.65 4.952,7.288 4.619,6.926 4.313,6.53 3.988,6.149 3.679,5.759 3.366,5.371 3.073,4.977 2.804,4.569 2.488,4.199 2.243,3.801 2.006,3.402 1.725,3.042 1.525,2.665 1.324,2.289 1.1,1.946 0.933,1.61 0.775,1.272 0.621,0.962 0.483,0.687 0.347,0.411 0.269,0.156 0.18,-0.049 c -0.166,-0.411 -0.271,-0.65 -0.271,-0.65 0,0 0.027,0.252 0.091,0.699 m 5.616,2.167 c 0,0 7.845,1.354 5.454,3.642 0,0 1.9,0.939 0.483,1.894 0,0 -0.611,0.966 -1.945,0.758 2.031,0.945 4.997,2.56 2.879,3.093 0,0 3.922,7.379 -3.686,2.515 0,0 -1.151,4.082 -5.068,-2.03 0,0 -3.054,2.193 -3.113,-3.591 0,0 -3.325,-1.249 -0.622,-4.801 0,0 -3.267,-2.166 -0.212,-4.834 0,0 8.537,0.75 5.83,3.354" />
      </g>
      <g
         style="fill:#982439;fill-opacity:1"
         transform="translate(137.1074,537.9648)"
         id="g6490">
        <path
           inkscape:connector-curvature="0"
           id="path6492"
           style="fill:none;fill-opacity:1;stroke:#982439;stroke-width:1.04499996;stroke-linecap:butt;stroke-linejoin:miter;stroke-miterlimit:10;stroke-dasharray:none;stroke-opacity:1"
           d="M 0,0 C 0,0 12.403,23.85 -7.202,50.471" />
      </g>
      <g
         style="fill:#982439;fill-opacity:1"
         transform="translate(159.3311,612.0493)"
         id="g6494">
        <path
           inkscape:connector-curvature="0"
           id="path6496"
           style="fill:#982439;fill-opacity:1;fill-rule:nonzero;stroke:none"
           d="m 0,0 c 0,0 0.068,0.193 0.195,0.52 0.059,0.164 0.153,0.353 0.223,0.584 0.069,0.232 0.147,0.494 0.24,0.772 0.084,0.282 0.14,0.6 0.228,0.924 0.089,0.323 0.122,0.682 0.2,1.039 0.074,0.36 0.093,0.742 0.159,1.121 0.044,0.383 0.072,0.776 0.106,1.166 0.019,0.393 0.058,0.784 0.06,1.172 0.005,0.388 0.033,0.769 0.026,1.14 10e-4,0.37 0.004,0.729 -0.002,1.069 -0.006,0.342 -0.013,0.664 -0.018,0.962 -0.021,0.598 -0.04,1.097 -0.051,1.447 -0.016,0.351 -0.024,0.552 -0.024,0.552 0,0 0.283,-0.762 0.497,-1.956 C 1.886,10.214 1.951,9.891 1.983,9.545 2.026,9.2 2.07,8.835 2.086,8.456 2.113,8.078 2.126,7.685 2.125,7.285 2.13,6.886 2.1,6.48 2.088,6.074 2.046,5.668 2.007,5.263 1.952,4.866 1.884,4.47 1.821,4.08 1.725,3.709 1.625,3.339 1.546,2.978 1.418,2.649 1.295,2.32 1.188,2.006 1.056,1.729 0.922,1.454 0.792,1.206 0.676,0.987 0.563,0.767 0.421,0.598 0.325,0.449 0.121,0.159 0,0 0,0 m -0.192,-0.346 c 3.189,-0.116 2.483,2.886 2.483,2.886 3.463,0.582 2.23,3.089 2.23,3.089 3.084,3.349 0.148,3.736 0.148,3.736 1.049,5.616 -1.811,3.896 -1.811,3.896 -1.742,6.887 -3.469,0.543 -3.469,0.543 -1.502,0.836 -0.672,-1.688 -0.015,-3.325 -0.653,0.838 -1.524,0.613 -1.524,0.613 -1.328,0.217 -0.744,-1.347 -0.744,-1.347 -2.604,-0.022 1.165,-5.026 1.165,-5.026 -2.954,-0.036 1.537,-5.065 1.537,-5.065" />
      </g>
      <g
         style="fill:#982439;fill-opacity:1"
         transform="translate(157.8076,603.1099)"
         id="g6498">
        <path
           inkscape:connector-curvature="0"
           id="path6500"
           style="fill:#982439;fill-opacity:1;fill-rule:nonzero;stroke:none"
           d="M 0,0 C 0,0 -0.114,0.17 -0.299,0.467 -0.396,0.613 -0.491,0.8 -0.634,0.996 -0.779,1.19 -0.941,1.409 -1.109,1.65 -1.283,1.886 -1.504,2.122 -1.711,2.386 -1.918,2.65 -2.185,2.892 -2.423,3.169 -2.667,3.443 -2.962,3.688 -3.227,3.967 -3.507,4.232 -3.803,4.49 -4.097,4.75 -4.399,5.002 -4.689,5.267 -4.999,5.501 -5.306,5.737 -5.595,5.988 -5.896,6.204 -6.191,6.428 -6.478,6.644 -6.753,6.844 -7.03,7.043 -7.292,7.231 -7.534,7.406 -8.026,7.747 -8.436,8.031 -8.723,8.23 -9.014,8.429 -9.18,8.543 -9.18,8.543 c 0,0 0.779,-0.23 1.863,-0.774 0.267,-0.141 0.566,-0.282 0.861,-0.463 0.303,-0.173 0.621,-0.357 0.934,-0.571 0.319,-0.204 0.642,-0.43 0.961,-0.67 0.324,-0.235 0.63,-0.503 0.949,-0.755 0.299,-0.276 0.599,-0.551 0.885,-0.832 0.276,-0.292 0.55,-0.576 0.79,-0.875 C -1.7,3.3 -1.459,3.021 -1.272,2.722 -1.082,2.426 -0.894,2.153 -0.752,1.881 -0.612,1.608 -0.491,1.354 -0.385,1.132 -0.277,0.91 -0.227,0.694 -0.166,0.529 -0.055,0.192 0,0 0,0 m 0.162,-0.362 c 2.003,2.485 -0.824,3.717 -0.824,3.717 1.61,3.122 -1.137,3.637 -1.137,3.637 -0.835,4.474 -2.903,2.356 -2.903,2.356 -3.87,4.204 -4.204,0.883 -4.204,0.883 -6.56,2.732 -2.514,-2.452 -2.514,-2.452 -1.569,-0.702 0.951,-1.548 2.653,-2.004 C -9.829,5.754 -10.17,4.922 -10.17,4.922 -11.139,3.989 -9.537,3.521 -9.537,3.521 -11.08,1.422 -4.814,1.442 -4.814,1.442 -6.557,-0.945 0.162,-0.362 0.162,-0.362" />
      </g>
      <g
         style="fill:#982439;fill-opacity:1"
         transform="translate(152.522,588.2104)"
         id="g6502">
        <path
           inkscape:connector-curvature="0"
           id="path6504"
           style="fill:#982439;fill-opacity:1;fill-rule:nonzero;stroke:none"
           d="m 0,0 c 0,0 -0.039,0.201 -0.096,0.546 -0.031,0.173 -0.047,0.382 -0.103,0.617 -0.058,0.236 -0.123,0.5 -0.184,0.788 -0.069,0.286 -0.183,0.588 -0.272,0.911 -0.088,0.324 -0.24,0.651 -0.352,0.998 -0.119,0.347 -0.298,0.686 -0.433,1.047 -0.156,0.352 -0.331,0.705 -0.498,1.059 -0.184,0.349 -0.348,0.705 -0.542,1.041 -0.193,0.336 -0.362,0.68 -0.556,0.995 -0.185,0.321 -0.365,0.631 -0.543,0.922 -0.179,0.291 -0.347,0.566 -0.502,0.821 -0.322,0.505 -0.59,0.924 -0.778,1.219 -0.191,0.296 -0.3,0.465 -0.3,0.465 0,0 0.629,-0.512 1.419,-1.434 0.192,-0.233 0.411,-0.479 0.615,-0.761 0.211,-0.276 0.433,-0.567 0.64,-0.886 C -2.27,8.034 -2.06,7.703 -1.858,7.357 -1.652,7.016 -1.473,6.65 -1.276,6.294 -1.107,5.924 -0.937,5.555 -0.783,5.184 -0.64,4.808 -0.498,4.44 -0.392,4.071 -0.291,3.702 -0.175,3.35 -0.119,3.002 -0.059,2.656 0.009,2.332 0.035,2.026 0.058,1.72 0.071,1.44 0.083,1.193 0.096,0.947 0.06,0.728 0.051,0.551 0.024,0.198 0,0 0,0 M 0.01,-0.397 C 2.817,1.12 0.688,3.35 0.688,3.35 3.381,5.606 1.047,7.145 1.047,7.145 2.008,11.592 -0.719,10.439 -0.719,10.439 -2.66,15.813 -4.254,12.88 -4.254,12.88 -9.246,17.937 -7.521,11.592 -7.521,11.592 -9.238,11.551 -7.243,9.796 -5.848,8.718 -6.836,9.109 -7.474,8.473 -7.474,8.473 -8.728,7.987 -7.433,6.936 -7.433,6.936 -9.666,5.597 -3.881,3.193 -3.881,3.193 -6.411,1.665 0.01,-0.397 0.01,-0.397" />
      </g>
      <g
         style="fill:#982439;fill-opacity:1"
         transform="translate(159.2529,601.7583)"
         id="g6506">
        <path
           inkscape:connector-curvature="0"
           id="path6508"
           style="fill:#982439;fill-opacity:1;fill-rule:nonzero;stroke:none"
           d="M 0,0 C 0.067,0.163 0.125,0.376 0.242,0.595 0.357,0.813 0.487,1.062 0.637,1.33 0.79,1.596 0.987,1.86 1.188,2.149 1.386,2.442 1.638,2.712 1.885,3.005 2.137,3.295 2.421,3.568 2.709,3.849 3.004,4.12 3.315,4.383 3.625,4.648 3.952,4.888 4.27,5.143 4.6,5.367 4.928,5.595 5.26,5.808 5.586,6 5.908,6.202 6.232,6.373 6.541,6.534 6.844,6.705 7.146,6.835 7.419,6.965 8.522,7.468 9.311,7.669 9.311,7.669 9.311,7.669 9.14,7.562 8.842,7.374 8.547,7.186 8.127,6.917 7.622,6.594 7.374,6.429 7.105,6.25 6.821,6.062 6.538,5.874 6.243,5.667 5.94,5.455 5.631,5.251 5.333,5.01 5.017,4.787 4.7,4.564 4.399,4.31 4.087,4.07 3.785,3.821 3.478,3.575 3.188,3.32 2.914,3.051 2.609,2.818 2.355,2.553 2.106,2.286 1.831,2.054 1.615,1.798 1.398,1.541 1.168,1.314 0.984,1.085 0.807,0.851 0.637,0.637 0.485,0.449 0.335,0.259 0.232,0.076 0.131,-0.067 c -0.196,-0.289 -0.316,-0.455 -0.316,-0.455 0,0 0.062,0.189 0.185,0.522 m 4.68,0.738 c 0,0 6.259,-0.258 4.798,1.898 0,0 1.618,0.408 0.685,1.377 0,0 -0.31,0.844 -1.371,0.905 1.719,0.391 4.269,1.142 2.727,1.903 0,0 4.24,5.027 -2.419,2.545 0,0 -0.21,3.332 -4.234,-0.724 0,0 -1.988,2.194 -2.99,-2.245 0,0 -2.764,-0.41 -1.273,-3.59 0,0 -2.872,-1.126 -0.964,-3.685 0,0 6.692,-0.836 5.041,1.616" />
      </g>
      <g
         style="fill:#982439;fill-opacity:1"
         transform="translate(155.7563,592.5562)"
         id="g6510">
        <path
           inkscape:connector-curvature="0"
           id="path6512"
           style="fill:#982439;fill-opacity:1;fill-rule:nonzero;stroke:none"
           d="M 0,0 C 0.115,0.132 0.239,0.316 0.419,0.484 0.598,0.656 0.801,0.849 1.029,1.054 1.258,1.258 1.531,1.446 1.814,1.655 2.095,1.869 2.42,2.043 2.748,2.242 3.08,2.436 3.437,2.604 3.799,2.778 4.166,2.939 4.544,3.089 4.922,3.24 5.31,3.363 5.692,3.503 6.077,3.61 6.46,3.72 6.842,3.814 7.214,3.893 7.583,3.981 7.946,4.04 8.29,4.094 c 0.34,0.063 0.669,0.09 0.969,0.125 1.207,0.122 2.017,0.061 2.017,0.061 0,0 -0.195,-0.048 -0.538,-0.131 C 10.398,4.066 9.914,3.947 9.333,3.804 9.045,3.727 8.733,3.644 8.403,3.556 8.075,3.468 7.729,3.367 7.375,3.263 7.017,3.169 6.656,3.037 6.286,2.927 5.914,2.816 5.548,2.672 5.175,2.545 4.808,2.407 4.44,2.271 4.083,2.123 3.737,1.956 3.375,1.833 3.048,1.664 2.727,1.489 2.392,1.359 2.105,1.185 1.817,1.012 1.527,0.871 1.279,0.711 1.037,0.546 0.808,0.399 0.603,0.269 0.4,0.138 0.244,-0.003 0.102,-0.106 c -0.278,-0.211 -0.445,-0.33 -0.445,-0.33 0,0 0.119,0.159 0.343,0.436 m 4.668,-0.801 c 0,0 5.848,-2.25 5.154,0.259 0,0 1.663,-0.132 1.091,1.086 0,0 -0.023,0.899 -1.009,1.296 1.754,-0.18 4.409,-0.286 3.193,0.929 0,0 5.627,3.404 -1.476,3.186 0,0 0.87,3.223 -4.243,0.672 0,0 -1.179,2.715 -3.551,-1.169 0,0 -2.751,0.497 -2.358,-2.993 0,0 -3.08,-0.146 -2.093,-3.181 0,0 6.071,-2.936 5.292,-0.085" />
      </g>
      <g
         style="fill:#982439;fill-opacity:1"
         transform="translate(143.6284,578.9219)"
         id="g6514">
        <path
           inkscape:connector-curvature="0"
           id="path6516"
           style="fill:none;fill-opacity:1;stroke:#982439;stroke-width:0.82200003;stroke-linecap:butt;stroke-linejoin:miter;stroke-miterlimit:10;stroke-dasharray:none;stroke-opacity:1"
           d="M 0,0 C 0,0 18,11.11 15.494,37.005" />
      </g>
    </g>
    <text
       style="font-variant:normal;font-weight:bold;font-stretch:normal;font-size:264.83865356px;font-family:'Trajan Pro';-inkscape-font-specification:TrajanPro-Bold;writing-mode:lr-tb;fill:#c4a674;fill-opacity:1;fill-rule:nonzero;stroke:none"
       id="text6534"
       x="281.37231"
       y="494.66617">
      <tspan
         x="281.37231"
         y="494.66617"
         id="tspan6536"
         style="font-style:normal;font-variant:normal;font-weight:bold;font-stretch:normal;font-family:'Times New Roman';-inkscape-font-specification:'Times New Roman,  Bold'">T</tspan>
    </text>
  </g>
  <g
     id="g4501">
    <g
       transform="translate(983.37908,-21.992213)"
       id="g3616">
      <text
         y="359.46991"
         x="-121.05094"
         id="text6518"
         style="font-variant:normal;font-weight:normal;font-stretch:normal;font-size:418.51293945px;font-family:'Trajan Pro';-inkscape-font-specification:TrajanPro-Regular;writing-mode:lr-tb;fill:#982439;fill-opacity:1;fill-rule:nonzero;stroke:none;"
         transform="scale(0.98034304,1.0200511)">
        <tspan
           style="font-style:normal;font-variant:normal;font-weight:bold;font-stretch:normal;font-family:'Times New Roman';-inkscape-font-specification:'Times New Roman, Bold';fill:#982439;fill-opacity:1;"
           y="359.46991"
           x="-121.05094"
           sodipodi:role="line"
           id="tspan3589">UniTNT</tspan>
      </text>
      <text
         y="604.43939"
         x="-125.36369"
         id="text6518-4"
         style="font-variant:normal;font-weight:normal;font-stretch:normal;font-size:176.43397522px;font-family:'Trajan Pro';-inkscape-font-specification:TrajanPro-Regular;writing-mode:lr-tb;fill:#58595b;fill-opacity:1;fill-rule:nonzero;stroke:none"
         transform="scale(0.93992497,1.0639147)">
        <tspan
           style="font-style:normal;font-variant:normal;font-weight:bold;font-stretch:normal;font-family:'Times New Roman';-inkscape-font-specification:'Times New Roman, Bold';fill:#58595b;fill-opacity:1"
           y="604.43939"
           x="-125.36369"
           sodipodi:role="line"
           id="tspan3589-7">Centro Universitrio</tspan>
      </text>
      <rect
         y="441.37158"
         x="-73.376717"
         height="5.1756792"
         width="1387.082"
         id="rect4271"
         style="opacity:1;fill:#58595b;fill-opacity:1;stroke:#ffffff;stroke-opacity:1" />
    </g>
  </g>
</svg>
