<?xml version="1.0" encoding="UTF-8"?>
<svg width="568px" height="185px" viewBox="0 0 568 185" version="1.1" xmlns="http://www.w3.org/2000/svg" xmlns:xlink="http://www.w3.org/1999/xlink">
    <!-- Generator: Sketch 47.1 (45422) - http://www.bohemiancoding.com/sketch -->
    <title>Imported Layers Copy</title>
    <desc>Created with Sketch.</desc>
    <defs></defs>
    <g id="Page-1" stroke="none" stroke-width="1" fill="none" fill-rule="evenodd">
        <g id="Artboard-1" transform="translate(-410.000000, -333.000000)" fill="#FFFFFF">
            <g id="Imported-Layers-Copy" transform="translate(410.000000, 333.000000)">
                <path d="M142.971597,43.9704235 L91.8630252,43.9704235 L91.8630252,95.3633176 C91.8630252,109.501506 80.3815126,121.000682 66.265042,121.000682 C52.1507563,121.000682 40.6670588,109.501506 40.6670588,95.3633176 L40.6670588,44.0185647 L55.0216807,44.0185647 L27.9117647,18.2586588 L0.801848739,44.0185647 L15.1586555,44.0185647 L15.1586555,95.3633176 C15.1586555,123.587176 38.0845378,146.548329 66.265042,146.548329 C93.08,146.548329 115.121008,125.753529 117.196639,99.4246824 L117.371429,99.4246824 L117.371429,69.5180706 L142.971597,69.5180706 C157.085882,69.5180706 168.56958,81.0194353 168.56958,95.1554353 C168.56958,109.293624 157.085882,120.794988 142.971597,120.794988 L127.684034,120.794988 C124.177311,120.794988 120.792941,121.324541 117.587731,122.272047 C112.138655,132.648659 103.65042,141.182776 93.3072269,146.673059 C92.3852101,149.850376 91.8630252,153.198376 91.8630252,156.671106 L91.8630252,184.536094 L117.371429,184.536094 L117.371429,156.671106 C117.371429,150.975129 121.996807,146.340447 127.684034,146.340447 L142.971597,146.340447 C171.152101,146.340447 194.077983,123.379294 194.077983,95.1554353 C194.077983,66.9315765 171.152101,43.9704235 142.971597,43.9704235" id="Fill-1"></path>
                <polygon id="Fill-2" points="221.181345 0.744023529 236.624034 0.744023529 236.624034 144.281318 221.181345 144.281318"></polygon>
                <path d="M560.507563,98.6040941 C558.04084,96.5121412 555.329412,94.7462353 552.447563,93.3501412 C549.578824,91.9606118 545.871092,90.4944941 541.424874,88.9911765 C541.236975,88.9277176 539.965378,88.5185176 537.614454,87.7635765 C535.261345,87.0108235 532.989076,86.2887059 530.793277,85.5972235 C527.961681,84.7066118 527.334622,84.4702824 527.135798,84.3761882 C520.970084,82.3389412 516.779496,80.3476471 514.684202,78.4613882 C512.650084,76.6320235 511.618824,73.6647765 511.618824,69.6406118 C511.618824,65.0847059 513.41479,61.6929412 517.109412,59.2683765 C520.823697,56.8284941 526.480336,55.5921412 533.922017,55.5921412 C542.812269,55.5921412 551.331092,57.7541176 559.235966,62.0233647 L559.773445,62.3122118 L564.02521,51.7189647 L563.642857,51.4738824 C555.443025,46.2308706 545.095462,43.5721647 532.888571,43.5721647 C527.858992,43.5721647 523.196471,44.0842118 519.029916,45.0951765 C514.856807,46.1083294 511.085714,47.6685412 507.819328,49.7320471 C504.524538,51.8130588 501.928908,54.6402588 500.106723,58.1326824 C498.286723,61.6163529 497.364706,65.6799059 497.364706,70.2051765 C497.364706,77.4854353 499.383529,83.1157647 503.362185,86.9386118 C507.286218,90.7133176 513.303361,93.9694118 521.254118,96.6237412 L535.163025,100.952071 C542.335966,103.306612 547.352437,105.634894 550.076975,107.871271 C552.718487,110.046376 554.062185,113.372494 554.062185,117.759906 C554.062185,128.355341 546.919832,133.504259 532.228739,133.504259 C521.98605,133.504259 511.970588,130.086235 502.457647,123.339906 L501.898319,122.943835 L497.340672,134.044753 L497.672773,134.298588 C498.996807,135.309553 500.58084,136.366471 502.378992,137.440894 C504.174958,138.515318 506.597983,139.745106 509.580336,141.095247 C512.571429,142.454141 516.167731,143.574518 520.270924,144.430118 C524.361008,145.279153 528.671765,145.710235 533.076471,145.710235 C537.738992,145.710235 542.137143,145.165365 546.146387,144.090941 C550.166555,143.012141 553.858992,141.340329 557.123193,139.119271 C560.417983,136.876329 563.042017,133.779976 564.923193,129.913365 C566.8,126.055506 567.752605,121.554306 567.752605,116.536682 C567.752605,112.593482 567.171429,109.120753 566.022185,106.2104 C564.864202,103.284729 563.009244,100.724494 560.507563,98.6040941" id="Fill-3"></path>
                <path d="M347.394958,60.3624941 C337.890756,49.5657412 323.994958,42.7384471 308.528235,42.7384471 C279.952269,42.7384471 256.70521,66.0212706 256.70521,94.6412 C256.70521,123.261129 279.952269,146.546141 308.528235,146.546141 C323.994958,146.546141 337.890756,139.716659 347.394958,128.922094 L347.394958,143.185012 L360.558824,143.185012 L360.558824,46.5678588 L347.394958,46.5678588 L347.394958,60.3624941 L347.394958,60.3624941 Z M308.528235,133.891576 C286.919832,133.891576 269.340336,116.282847 269.340336,94.6412 C269.340336,72.9995529 286.919832,55.3930118 308.528235,55.3930118 C330.138824,55.3930118 347.718319,72.9995529 347.718319,94.6412 C347.718319,116.282847 330.138824,133.891576 308.528235,133.891576 L308.528235,133.891576 Z" id="Fill-7"></path>
                <path d="M428.541176,42.1257412 C417.450756,42.1257412 406.578824,45.7407059 397.682017,52.3426118 L397.682017,1.06569412 L383.364538,1.06569412 L383.364538,143.526376 L397.682017,143.526376 L397.682017,135.740635 C406.55916,142.329412 417.431092,145.935624 428.541176,145.935624 C457.117143,145.935624 480.366387,122.650612 480.366387,94.0306824 C480.366387,65.4107529 457.117143,42.1257412 428.541176,42.1257412 L428.541176,42.1257412 Z M428.541176,133.281059 C416.388908,133.281059 405.163025,127.792965 397.682017,118.212871 L397.682017,69.8331765 C405.16521,60.2618353 416.391092,54.7803059 428.541176,54.7803059 C450.14958,54.7803059 467.731261,72.3890353 467.731261,94.0306824 C467.731261,115.672329 450.14958,133.281059 428.541176,133.281059 L428.541176,133.281059 Z" id="Fill-9"></path>
            </g>
        </g>
    </g>
</svg>